<svg xmlns="http://www.w3.org/2000/svg" width="400" height="400"><g fill-rule="evenodd"><path d="m131 48-17 5-1 1-1-1c-2-3-5-3-7-2-3 1-7 6-9 9l-1 1c-1 1-6 2-7 4h-3l-4 1a181 181 0 0 1-7 5l-2 2-1 1h1l2-1 8-5h5l7 1h1v1-1a20 20 0 0 1 2-7c1-2 5-8 8-9 2-2 4-1 6 1h1l-1 1h-2l-2-1 1-1 1-1h-1c-2 1-5 4-7 8l-1 2-4 10 1-1 1-4a30 30 0 0 1 12-10l7-3a55 55 0 0 1 33-2v1c-7-3-21-1-34 3-6 2-10 4-9 5l2-1 6-2h1-1l-1 1c-4 1-13 5-12 6l4-2c10-5 17-6 28-6l6-1h1-19l2-1a55 55 0 0 1 30 0h6l-3-1-3-2c-2-2-11-4-17-4h-6m-24 8h1l-1 1-3 2c-2 2-2 2-1 0 1-3 3-4 4-3m49 0 4 5-2-1-16-4c-3 1-3 1 0 1a65 65 0 0 1 17 4l2 1h-1c-5 1-6 0-8-1h-3l3 2h-2c-7 1-15 3-22 6h-4c0-1-1-1 0 0s1 1-2 3a75 75 0 0 0-5 2c-1-2-5-5-6-4v1c2 0 4 2 4 4l-2 2-16 15-2 2v-1l-1-2c0-1 0-1 0 0v4l-1 2c-15 18-23 42-22 65v3c-1-1-3-5-3-8a36 36 0 0 1 0-16l7-17a3261 3261 0 0 0 2-5c-12 22-15 35-8 47l1 2 2 1v2l1 5c0 2-2 1-3-1-7-8-9-22-6-34 2-8 4-12 12-25a208 208 0 0 0-2 1c-7 12-9 17-11 25-3 11-1 25 4 32l2 1 3 2 1 1v1l1 8c0 7 0 15 2 19v-1l-1-12c0-3 0-3 1-2l1 2v3l1 12v1h1v-11 1l3 6 1-1h-1a69 69 0 0 1-4-11l-2-8-1-4-2-13a99 99 0 0 1 47-94c9-5 18-8 26-9 15-3 20-2 26 2l2 2-2-1h-3l-15 1h-4l-16 4c-10 3-13 5-22 12a117 117 0 0 0-25 33l-2 7-2 4-2 6-1 3-2 11a120 120 0 0 0 7 49l1 2 1-1 3-9 1-10v-15a110 110 0 0 1 0-17l-1 11c0 3-3 11-7 17-1 2-1 2-1 0v-5l3-9 2-12v-1 1l-1 3-2 7-3 6v-4a42 42 0 0 1 3-15l-1 2-1 2-1 3v-3l2-5 2-3-2 3c-1 1-1 1-1-2a113 113 0 0 1 18-41l2-3 3-4 1-1v4c0 6 0 6 1 5l2-11 14-10 2-1h1l13 4 6 4-2-1-5-4-3-1-3-2c-4-2-4-2-2-2l9 1-2-1a25 25 0 0 1-4-1v-1a33 33 0 0 1 6-2l6-2h5c8 1 18 6 25 11 9 6 14 12 22 24l2 3a91 91 0 0 0-26-30c-3-3-13-8-18-9h5a47 47 0 0 1 9 2 52 52 0 0 1 9 3l-8-4-4-2h10a42 42 0 0 1 14 5l12 8c4 3 10 11 10 12l3 4 1 1 1 1v-1a75 75 0 0 0-4-7l2 1c3 3 7 8 8 13l2 3c1-1-3-9-5-12l-9-9-3-2 5 3c8 7 12 13 14 21l1 3v2-1c-1-7-3-14-7-19a61 61 0 0 0-15-13l-1-2a46 46 0 0 0-4-4 39 39 0 0 0-22-15l-5-1-4-1-3-1-1-1c-3-3-4-4-8-4h-2c-1 0-1 0 0 0m6 2 3 3v1h-3v-1l-3-3-2-2 3 1 2 1m-67 7-1 2s0 1 0 0a344 344 0 0 0-4-1l5-2v1m4 6-2 3c0 1 0 0 0 0l3-3h-1m2 0-3 4 2-1 2-3h-1m-8 3 2 1-1-1h-1m85 0h2-3 1M71 75l-3 1-4 3-12 11c-8 8-10 12-11 19l-4 10-1 3v1l2-2 2-4c2-4 8-12 14-18a171 171 0 0 1 18-15l-4 3a124 124 0 0 0-10 7l8-9c4-4 2-4-2 0-7 7-11 11-13 15l-3 4-4 4v-2c2-8 6-13 13-19l6-5 3-2 5-4v-1m22 1c-2 0-4 2-5 3h1a10 10 0 0 1 3-1l2-1 1-1h-2m5 1v1c2 0 2-1 1-1h-1m-2 0-1 1-1 2 1-2 1-1m194 3-1 1-2 1c-3 2-7 7-9 13s-2 9-1 14l1 19a287 287 0 0 0 0 20 221 221 0 0 0-9-10l-5-6a23 23 0 0 0-5-6l-1-3c-3-6-5-12-6-19a14 14 0 0 0-1-5l-1-3c-1-3-4-3-5 0l-1 1-3 6c-2 6-3 16 0 18l2 6 2 5-1 3c-2 4-4 6-5 6l-2 2-2 1h-1l-4-2-1-1v-3l-1 2v1h-1c-2 0-2 0-2-2a94 94 0 0 0-17-33c-4-6-10-12-15-16l1 1 6 7a84 84 0 0 0 5 7l1 1c3 3 8 13 10 19a82 82 0 0 1 4 15 57 57 0 0 0-7-18c-4-7-13-17-15-15l1 1 2 1c9 8 16 21 18 35v1c-1-4-4-9-7-12l-3-4-8-11v2c6 6 14 20 16 28l2 4h1l1-2v-10l1-4v-1l-1 1v2h-1a96 96 0 0 0-3-15c3 6 6 11 7 16v2c-2 1-2 1-2 3v1h1l1 1v2l1 5-4 1h-1v-2l-1 1v2l-1-2-1-1h-1v4l-4 3-1 2-1-1-1-3h-1l1-2 4-2 2-2h-1l-2-1-2-1-1 1h-1v-2l-1-1h-1v-1h-1l1 10v1-2a53 53 0 0 0-3-11l-1-2v2h-1v1l1 1 1 1v3l-3 4v1l1-1 3-4v3l-1 1-2 4h-1v-1l-1 2v4l-1-1v1l-1 3v1-1 4l-1 7v1l-1-1-1-6v-6l-1 4 1 9a27 27 0 0 1 1 3v1l1 2v2c-3 3-3 6-1 9v3h-2l-2-1c-4-4-9-6-13-6h-1v-1l1-3 1-2v-2 4l1-1c2-5 3-13 4-22v-4a212 212 0 0 0-2 2 36 36 0 0 1-2 7 50 50 0 0 1-6 12l-1 1 1-1a82 82 0 0 0 8-20v-2l1-1v-5l1-3a86 86 0 0 0-1-19l-3-9v2l1 3 1 1h-1a347 347 0 0 1-6-7 87 87 0 0 1 7 35c0 2 0 2-1 0l-1-8-2-5a162 162 0 0 0-8-21l1 3 6 16 3 24-4 9v-1l-2-7v-6a76 76 0 0 0-9-36v2c4 9 7 17 7 28a163 163 0 0 1 0 20h1-1l-1 4v6l-1 3h-1v-14h-1c0-1 0-1 0 0-1 2-1 2-1 0l-1-1-1-1a148 148 0 0 0 3 15v1h-1l-4-2h2l1 1-2-2h-1l1-1-1-3v2l-2 2h-1l-5-4v-1l1-2v-3h4l4 3c2 1 1 0-1-2s-2-2 0-2l1-1-6 1-1-3 1-5c-1-1-1-1-1 2l-2 7-1 7v-3l1-6v-11 2l-1 11-2 1v-2l2-14c-1-1-1-1-1 2a119 119 0 0 1-3 17v1h1l1 1v3l-1-1-1-1a95 95 0 0 1 0-1c-1 0-1-1-2 4a33 33 0 0 1-4 8c0 1 0 1 0 0v-2l-1-5v-1l1-3v-2h-1l-2 10-1-4v-8h-1v7l-1 1-1 1-1-1-7-11c-2-3-2-2-1-3v-1l-1 1v-2l-1-2h-1l1 3c1 6 6 21 10 28l1 3-1 1-2-2-4-5v-1c-3-3-6-11-9-20l-3-5 2 7 2 5 2 7-1-1a26 26 0 0 1-6-7l-1-2v-1c-1 0-9-19-9-23l1 7 1 2v4a1662 1662 0 0 1 3 17l-5-9a81 81 0 0 1-5-12 76 76 0 0 0 11 24 50 50 0 0 0 13 11 22 22 0 0 1-5-2 29 29 0 0 1-6-4c-4-1-16-14-15-16l-2-3v-1l-3-8c-2-8-2-23 0-36l1-8-1 5a116 116 0 0 0 1 52 275 275 0 0 0 8 58v1l-2-3a175 175 0 0 1-11-44v9l-2 3v1-1l-1-2v-1l-1 1-1 2a54 54 0 0 0 6 10h-1l-2-1h-3v-1l-3-4-1 4v1h-1l-1-1h-1l-1 1c1 1 1 1-1 1a22 22 0 0 0-4 2v-4c-3-10-5-14-11-23l-2-4v-3l1-2a25 25 0 0 0 0-12v7a197 197 0 0 1-2 4l-1-1v-2l-1-6c-2-10-3-18-2-27l1-4a56 56 0 0 0-2 8l-1 2v4l1 9c0 8 1 9 3 18a101 101 0 0 1 3 7l4 8 6 17 1 4 1 1-1 1c-3 2-4 5-3 8v1l-1-2a55 55 0 0 0-4-18l-2-5a145 145 0 0 1-8-24c-3-11-3-25-1-33 3-10 9-23 12-25v-1c-3 1-8 10-11 20-3 8-3 10-3 20l2 22 3 10 1 2-1 3-6 18-1 3v-1a56 56 0 0 1-3-12l-1-4v-3 2c-1 5 0 17 2 22v3l-1 1-1 6-1-2-1-2-1-23c1-14 1-20-2-33l-1-1c-1 1 0 2 1 6a35 35 0 0 1 1 16l-2 12c-2 9-2 8-1 9l1-4c1-5 1-6 1 5 0 10 1 13 2 16l2 4h1v13l2-5c-1-4 1-14 4-21a237 237 0 0 0 7-24l2 3v8a55 55 0 0 0 4 39l1 3c0 6 2 12 6 19l6 10-3-5c-3-6-3-9-4-14v-15a45 45 0 0 0-1 18 81 81 0 0 1-2-10v-4l-1-1a47 47 0 0 1 2-15l1 2h1l2 9 3 3v2c0 1 3 4 6 4h2l1 1 2 1 5 1h3c0 2 5 3 6 2h1v1h1v3c0 7-3 13-8 19l-1 2 3-3c3-3 5-7 6-12l1-2v-2h1l1 1 3 1v2h-1c-3 1-4 4-2 7l1 1-2 4-4 2h-1a47 47 0 0 1-4 3 20 20 0 0 1-3 2l-1 1h-1l-3 1c-2-1-2-2 0-4l7-7h-1l-1 1-1 1-2 2-6 4c-4 2-8 2-12-2l-3-5-2-2a35 35 0 0 1-5-11l-1-1v1a33 33 0 0 0 4 11l-5-6c-6-7-11-18-12-25 0-2 0-2-1 0v3a94 94 0 0 0 3 11 430 430 0 0 0-4-5v-1 2l1 2 5 6 4 4 7 8 1 2-1-1a54 54 0 0 1-17-17l1 5a51 51 0 0 0 19 16h1v6h1l-1 2v1l2-2h1l2 2 1 1 1 1h1v3c0 7 0 11 3 18a75 75 0 0 1 4 15c1 3 0 12-1 14l-7-3-1-1-4-9c-3-7-3-11 0-17 0-2 0-3-1-1-3 5-3 10-1 16 4 13 10 19 23 24l9 5-1 1a325 325 0 0 0 1 0h1l2 1c9 8 13 26 8 44v1h3l1-1 1-12a45 45 0 0 0-5-22l-7-11-1-1h1l3-2 1-1 1 1c8 6 11 15 9 25l-1 2 2-5 1-2-1-2c0-8-3-14-8-18-2-1-2-1-1-2h2l13 5c13 6 21 15 23 25v2c-1-6-6-12-10-14l1 2c2 1 4 4 5 7 2 9-1 17-8 23l-2 1h6l1-1c5-4 7-9 6-16v-3l1 5v6c2-1 2-8 1-14v1l2 6 1 2v-5l-1-5c-1-4-3-6-7-10a1114 1114 0 0 1-11-8 77 77 0 0 0-11-7l-3-2-3-2-2-2 1-1a61 61 0 0 0 6-11l1 1 7 2h1l1 1 1-1v-1h2l-1-1-3-2-3-1-2-2-3-1 1-1v-1c0 1 0 1 0 0l1-1h1l1 1h2l2 1 1 1c0 5 2 7 5 5l2-5c0-1 1-2 2-1 2 2 3 2 4 1 0-1 0-1 0 0h1v-1l-3-2c-1 0-1-3 1-4 1-2 5 0 11 4a210 210 0 0 0 7 4h-1l-2 2c1-1 2-2 3-1l1 3v5l-4 6-1-1v1l1 1v5c1 4 0 8-1 7h-1c-1 0-1 0 0 0l2 1v2h-2c0 1 0 1 0 0h2v9l-2 3c0 1 0 0 0 0l3-3 4 6 1 2c2 2 5 4 11 5a1667 1667 0 0 1 13 4v1c0 1 0 0 0 0l1-1v-1l1 1h1l1 1 1 2h2l2 1v1c2 0 4 4 5 9h5v-1c1-4-2-8-6-10-2-1-2-1 0-1l9-10 1-5v-1l-1 1-10 7-8 3-1 1-1-1c-2-1-2-1 0-2 4-4 4-4-3-4l-3-1c0 1 1 2 3 2h1-1l-3 1-1 1h-1l-6-1-7-1c-3-4-5-11-5-16l3-10v-10h3a49 49 0 0 0 12-3l-10 9h1a55 55 0 0 0 21-20h2c4 1 5 3 7 9l5 12 1 3c1 7 5 14 11 22 4 5 6 12 6 22v4h8v-1 1c2 1 1-2 0-4l-2-3v-3l-1-1v-1l-1-3v-4l-1-1v-2c0-4-1-5-3-7a60 60 0 0 0-7-6v-1h2c1 0 1 0 0 0l1-1-2-1h-1l-1-1-1 1-1-1-2-6-1-1v-2l-2-6v-2l1 1c1 3 1 4 2 3v-1l-1-2c1 1 1 1 0 0-1-2 0-3 1-3l1-1c-2 0-3 1-3 2v1-1l-1-1-1-8a87 87 0 0 0 1-4l1-1-1 1v-3l2-1v2l1 1 1 3v1h-3 1v2c-2 1-3 2-3 4h1v-2h2l2 2v1h1v2l1 2h1l1 2v1l2 1h1l2 2h1a11 11 0 0 0 4 3l3 1 1 1h1l1 1v1l-1 2v1l-2-1v-1l-4-1v1h1c1 1 1 2 2 1h1l2 2v1l2 1 1 1v2c0 2 0 4 2 4h1v3l1-6-2-2v-1l-2-3-2-2v-1l1-1 1 1 1 1 1 1h1c1-1 3 1 4 3v2h-1c-1 0-1 0 0 0l1 1h1v2l-1 2-1 2v3h-3 2l1 1v1l-1 4v5h-1l-2 1v-9c-1-1-2 4-1 6v8l1 1v-3l-1-2 1-1h2v6a172 172 0 0 0 2 6v1h4l-1-3-1-4c-1-3-1-8 1-12l1-2v-1l4 20v2h1v-2c0-9-2-16-4-22v-3c2-5 2-8-1-12v-1l-1-1-2-1-6-4-2-2c-1-1-2-2-1-6l1-7 1-2-1-1h1l2-4c1-3 1-3 2-1l2 8v2l1 1h1v-2l1-1a9 9 0 0 0 3-1v11l1 1v-1a40 40 0 0 0-1-14c-1-4-4-8-6-11l-1-1v-2l2 2a27 27 0 0 1 7 28v2l1 1h7l1 1v1h-1l1 1v1c1 1 0 2-1 2v1h-1l-1-1-1-2v-2h-4l1 4 4 2 4 1v1l2 2v2c3 3 5 8 5 10l4 2 2 1h1l1 1h1l6 4 3 4v1c2 2 3 7 2 9h14l-1-1-6-5-4-6c-1-3-2-5-4-6 0 0-1 0 0 0a140 140 0 0 0 24-1h5l2 1 2-1 2-1 3-1 3 1h6l22-2c9-2 13-2 24 0a412 412 0 0 0 23 0l-1-2h-6a273 273 0 0 0-41 0l-12 1h-16l-2-1c-3-1-10-8-12-12a26 26 0 0 1-5-12c-1-1 0-12 2-16 4-12 10-21 18-26 4-2 12-2 19 1 2 0 4 3 7 7l2 3 2 3a35 35 0 0 0 11 14 50 50 0 0 0 19 10l7 3h1-1l-2-1-3-1 9 1h2l-2-1-5-1c-14-3-24-9-31-20-3-3-7-12-11-20a171 171 0 0 0-20-33l-2-2 2-2c6-6 8-9 12-18v-1l1-2v-1l2-1 2-3 4-7 1-2 1 1 4 4 8 6 8 8a2315 2315 0 0 1 26 20c2 2 2 2 2-1v-2l-2-2-10-8a229 229 0 0 1-38-32c0-2 0-3-3-5-2-1-2-1-2-4l-3-5v-2c0-5-2-8-5-8h-1l-1-1c-1-2-3-3-5-3l-1-1-3-1h-1v-1l-2-9-2-12-1-6-1-2v-3c-1-7 1-12 4-20a61 61 0 0 0 7-26l1-6c-1-2-3-2-5-1l-1 1c-2 0-6 4-8 8-3 4-4 7-5 14l-2 8-7 13-1 1v-1c-4-4-6-10-8-19v-10l-1-13V80h-3m2 0 1 1-1 1-1-1h-1l1-1h1m0 3v6l-1 4a159 159 0 0 0 1 38v7c2 8 4 16 7 20v2c0 2-1 2-2 3h-1l5-1 1-1 6-10c3-6 4-8 5-16 1-4 2-8 5-12 4-6 10-9 10-6 1 9 0 16-5 26l-3 6a35 35 0 0 0-2 25l1 4 2 11c1 5 2 13 4 16l4 9 1 2v1h-1c-1 0-3 3-3 5v1h-1c-2 0-5 3-6 5v1h-5l-1 1h-1l-3-1-10-4h-1l4 3 2 1 3 2h1l-5 2-1 1-1-1h-2l-2-1h-2l1 1h1-3l-4-1h-1l2-2h1l1-1-4 1-6 1h-2c-7 0-16-4-21-10l-1-1-1-1-1-1h4l-2-1-6-1c-4 1-8-1-11-5l-3-4h-1 1l1-1h2c-3-2-7-2-12 0-4 2-6 2-7 0h-1v-4l2-4 1-2h4l3-1 2-1h5c1 0 2 0 1-1v-1l2-1h1c5 2 7 4 8 6l1 2 1 1 2 2-1-2v-1a42 42 0 0 1 10 0l-2-1a29 29 0 0 0-8-2l2-2c2-3 4-8 4-13l-2-8-2-7a72 72 0 0 0-1-7l-1-2a30 30 0 0 1-3-6l2-2 2-2 1 1 3 6c4 7 11 13 15 12h1l-1-1h-2c-1-1-1-1 1-1s3-1 3-2l-1 1v-1l-3 1h-2l-1-1c-3-1-7-5-9-10l-2-3-1-2-1-2 1-1 5-3h-1l-4 2 1-1c1-2 2-3 1-4l-1 1-4 6-1 2-3 3c-3 5-12 8-16 6l-6-3c-2 0-3-3-3-7v-1h4a615 615 0 0 0 7 0l4-3 8-10 5-5c2-2 6 0 9 5l11 14c4 3 6 7 6 8l1 2 1 1v-1l-1-2a113 113 0 0 1-1-25 167 167 0 0 0-1-27l1-2 1-6 3-6a14 14 0 0 1 4-4l1-1 1-1h2l1 1M66 91l-14 13c-7 9-11 14-14 21v4c-1-1-1-1-1 1-3 9-4 16-2 20 0 2 1 2 0 0-2-9 4-27 12-37a120 120 0 0 1 21-23l-2 1m-9 3-2 2-3 3 6-7-1 2m191 1 1 2-2-1h-1c0-1 1-2 2-1m-1 2c2 1 3 5 4 11a61 61 0 0 0 6 17h-8l-2 1c-1 0-1 0 0 0h5-1l-1 1-2 1h2l-1 1-2 2h-1a164 164 0 0 0-4-10c-2-5-2-12 0-18 2-5 4-7 5-6m-32 4v1a93 93 0 0 1 5 11 80 80 0 0 1 7 24c0 3 0 3 1 1l1-1-1-2a248 248 0 0 0-1-8l1-5v-4l-1-1v4l-1 5v-6l-1-7-1-1v7l-1-3a149 149 0 0 0-6-12l-2-3m65 8 3 1c2 0 2-1 0-1h-3m2 2h2-2m-104 0 1 1a55 55 0 0 1 7 23 61 61 0 0 1-2 23l2-3 1-12v-5l1 2v2l1 6c1 1 1 0 2-2v-3l-1-2v-1l-2-2-1-2v-2l-1-7-1-1 1 1 5 8 1 3v-1c0-3-5-12-6-11l-1-3-6-11-1-1m152 4v3-2l-1-1h-1l1-1 1 1m-141 0 2 3a21 21 0 0 1 3 8l2 15c0 3 0 3-1 2l-1-4-1-2v4a43 43 0 0 1 3 9 52 52 0 0 1 1 12l1 1v-1a78 78 0 0 0 1-7v1l-2-4v-3h1l1-2 2-2c-1-1-2 0-3 1l-2 1v-1l1-5v-7h-1v-5l1 3v2h1l1 2 1 3v-4a12 12 0 0 1-1-2l-1-2-2-3-1-2-4-10-2-1m-155 8c-4 7-7 19-6 24v3c-3 9-3 23 0 30l3 5-2-4v-1l-1-1c-2-7-2-19 0-28v-1l1 1v4c-2 10-1 23 2 27h1l-1-4c-2-6-3-15-1-22h2l1 1 1 3 1 4v1l1-2v-4a45 45 0 0 0-1-3v-1l-4-3-1-1c-2-4 1-18 5-26l1-1v-1c-1-2-1-2-2 0m163 1 2 3 1 1-1-1-1-3-1-1v1m-16 5 2 5v14-2l-5-21 3 4m19-3 1 5 1 2v1a35 35 0 0 1 2 5l1 3 1 3v-1l1-1h4l2 2h-1l-3 1h-1c-1-2-1-3-1-1v1l1 1h6l-2 1-1 1a17 17 0 0 0 5 2h1l-7-12-10-13m-60 3 1 3 1 5 2 23-1 15v3l2-7a106 106 0 0 0-5-42m63 2 7 9 1 2h-4l-1 1-1-1a96 96 0 0 0-2-10l-1-1h1m78 1 5 1c1-1 0-1-1-1a136 136 0 0 1-4 0m2 1-2 1h3l2-1h-3m-127 3a58 58 0 0 0 1 4 64 64 0 0 0 1 8 113 113 0 0 1 0 16 40 40 0 0 0 1-6 67 67 0 0 1 3 0h1v4l2 6v3h2l-1-2v-3l-2-4a172 172 0 0 0-8-26m159 0 2 1 5 1-1-1h-2l-4-1c0-1 0-1 0 0m-187 3c0 3 5 15 8 21l1 1v9h-1l-2-2c-4-4-10-13-10-16l-1-5v6l2 13c1 1 1 1 1-1a170 170 0 0 1-1-7l4 6 1 1-2 1-1 2 2-1 1-2 1 1 1 1-1 1-2 2 1-1c2-2 2-2 4 1a52 52 0 0 0 4 3v2l1 1 1 1v-3a143 143 0 0 0-3-21l-2-7a57 57 0 0 1 1 6l-4-10-1-1 3 9 3 9a98 98 0 0 1-9-20c0-1 0-1 0 0m190 0h2-2m-117 0 1 2-1-2m44 2h-2 2c2-1 2-1 0 0m-55 3v2l-1-3 1 1m42 0 2 1h-2a271 271 0 0 0-5-2h2l3 1m-73 2a224 224 0 0 1 1 8l-1-2v-1l-1-7 1 2m32 0 1 2a67 67 0 0 1 2 6l-4 11v-2l1-10v-6 1l-1 5c0 11-2 16-6 21 0 0 0 1 0 0 3-1 8-9 10-17v-1l1 2 1 4c0 4 0 4 1 3v-3a70 70 0 0 0-5-16v-1l-1 1m-38 1v2l1 5v5-1c0-2 1-1 1 0v2l1 1v-1l-1-6a483 483 0 0 1-2-7m98 7c0 1 0 1 0 0h-3l2-1v-1l1 1v1m59-1 3 2v-1c-1 0-1 0 0 0h1l-2-1h-2c-1-1-1-1 0 0m-149 3 1 1v1c1 0 0 0 0 0l-3-1v-4l1 1 1 2m63-1h-1c-2 1-2 1 0 1h1l-12 27v1-1l-1-1-1 1 1-3a2884 2884 0 0 0 12-25h1m-144 1v-1 1m167-1h2l1 1h-5l1-1h1m4 1-1 1v-1h1m-18 1h1l1 1-14 34-4-2h-1l4 2v1l-4-3h-1l1-3 12-28 2-3h1l2 1m21 4a224 224 0 0 1 2 13l2 3v4l-2 9v1-4a83 83 0 0 0-2-14l-3-5a56 56 0 0 1-2-3v-2l1-3v-1l2-2 2 4m-5-4c1 1 1 1-2 3l-2 2-1 1-1-1-1-1 1-1a63 63 0 0 1 5-3h1m-6 0h3l-1 1-2 2h-2l-1-1v-2h3m-4 1h-2v-1h1c1 0 2 0 1 1m-71 3a100 100 0 0 1 0 11h1v-6l-1-3v-2m72-1v1c2 1 5 6 5 7l-1-2-4-5-1-2 1 1m41 2 1 2 7 3 1-1h-1c-3 0-5-1-7-3l-1-1m-77 1v1h-1 1v2l-1 2v1l2-3 1-1v4c1 1 0 3-1 5l-4 1h-1v-2l3-9c0-2 0-2 1-1m42 0h1v3l-1 1v1-1l-2-3 1-1h1m-157 7a30 30 0 0 1-6 8l7-15v5l-1 2m-53-7v4a95 95 0 0 1 0 16c1 3 1 2-1 2l-2-2-1-1v1l4 3v1l-3-1-1-1c0 1 2 3 4 3v3l-1 11-1 4 1 1 1-4a115 115 0 0 0 0-40m76 7 2 5 1 3v1l-2 2-1-1a823 823 0 0 1 0-10m188-4c0 2 5 7 7 7h1v-1h-2l-5-5-1-1m-52 1 3 3 2 3v3c1 5 2 16 1 17v-3l-1-6v8l1 2-1 1-1 1v-1l-3-2-2-1v-10l-1-3v-8l1-2 1-2c0 1 0 1 0 0m-74 3a610 610 0 0 0 0 8l-2 4v-2a100 100 0 0 0 2-12v2m8 0-1 10-1 3v-6l1-4 1-5v2m66-2-1 3 1-1v-1h1l1 1 1 1-1-1-2-2m-50 2v-1 1m109 0c0 1 3 2 4 1h1-1l-2-1h-2m6 1h1-1m-223 2-1 2-4 13-2-6v-2l1-1a67 67 0 0 0 6-7v1m161-2v1l1 4 1 5v1-1l-1-9-1-1m-52 6 1 3h1l3 1h2-1l-1 3h-1l-1-1h-3l-2-1v-7c1-2 1-2 1 0v-3 2l1 3m-20-2a91 91 0 0 1-2 10v-7a34 34 0 0 0 2-4v1m-80 2v2h2l-1 1-1 1 1-1h1l1 1 4 5 2 3 5 11c5 7 13 15 17 16l2 1h3l1 1v1h1v-1h5l2 1h1l-1 1v3-1l1-1v-2l2 1h6v1l1 1v-4l-1 1h-7v-1h-1l-5-2h-1v-2 1c-1 1-2 0-2-1h-1l2 2h-3a46 46 0 0 1-11-8h1a31 31 0 0 0 9-2v1l-1 1 1-1c2-2 2-2 3-1l8 6 10-1h1v4h-1l-3 1c-4 0-9-2-14-5h-1l9 5 9 1h1l1 5v5l-2 2-2 1h-3l-3-1-2-1-1 1c-2 1-2 2-1 6v1l-3 1-9-3a91 91 0 0 1-12-5l-1-2a51 51 0 0 0-6-9l-6-3h-1l-2-12h-1v-6c0-2 0-2-1 0-1 1 0 3 1 3v1l-1 1-1 4-1-4v-3l1-2 1-2h1-1v-1h1v-1c1-2 0-2-1-1v-1l1-2h-1v-1l1-1-1-1c-1 0 0 0 0 0l1-1-1-1s-1 0 0 0l-1 1-1 1v6l-1-2v-15 1h1v1m55-1-1 1-1-1 1-1 1 1m-24 3a45 45 0 0 0 7 8 42 42 0 0 0 7 6l-3-1-2-2-8-8-2-4v-2l1 3m23 0h-1l-1-2 2 2m-53-1h-2 1v-1l1 1m-10 5-2 9-2 2v-2l-1-2 1-1 3-10 1-2v6m176-4 2 1 11 2 10 2 5 3 2 1-2-2c-4-4-5-4-15-5l-10-2h-3m-150 1v1l-2 2h-1l2-3h1m182-1 1 1h1l-1-1h-1m-122 2 1 6v4h-1l-4 1h-1v-1h-1l1-3 1-4 1-1a18 18 0 0 0 3-4v2m-16 4c1 2 1 2-1 0l-4-4 2 2 3 2m136-4 4 1-1-1h-3m-196 0h-1c-1 1-1 1 1 2 1 0 2 0 0-1v-1m18 1 8 10 3 3 1 1-1 1v1h-1c-6-3-14-9-14-12l-1-1 1-1 3-3 1 1m90 0v1l1 4c1 2-1 1-3-1l-1-1v-1l2-2h1m-51 3-3-1v-2l2 2 1 1m-6-2v4h-1v1l-2 1-1 1v-2a215 215 0 0 0 3-6l1 1m95 3v5a75 75 0 0 0-3-1v-1l2-5 1-1v3m-112 0 1 2h-1v1l-3-5h1l2 2m77-2 2 3c1 1 2 1 1 2h-2l-1-2-2-1v-1l1-1h1m52 1-1 2-1 2-3 4 5-6v-3 1m16-1v1h2l5 2 5 3 7 2-3-1-4-2-5-3-5-2h-2m-78 1 1 1h-1l-3 1-1 1h-1v-1l4-3 1 1m-46 0 1 1h-2l-1 1v-3l1 1h1m48-1 2 2c2 3 4 3 5 3h1l-2 1c-2 1-3 0-5-2l-1-2h-1v-1l1-1m67 2 4 3c4 2 8 7 10 11l1 1v-1l1 1 3 3 1 1-1-1a66 66 0 0 0-3-5l-1-2-2-3-4-4-2-1-1-1-2-1h-1l-1-1h-2m-131 1h-1v-1l1-1v2m24-1h-1 1m-4 1c3 0 3 1 0 1l-7 2v-1l5-3h1l1 1m-16 1-1 3v-2c1-3 1-3 1-1m-42-1v1l-1 1v-2h1m102 2 2 2 2 1c3 2 5 1 4-1v-1h2l2 2a19 19 0 0 0 6 3h2l1 1h-1l-1 2-1 1-5-3a21 21 0 0 1-9-4l-6-5 2 2m-36-1h1v2l-1-1-2-1-1-1 3 1m3 0-1 3v-4l1 1m-7 0c1 0 0 0 0 0h-1 1m33 0v1l2 6v6l-1-1c1-2 0-4-1-6l-1-4v-2h1m102 0 1 1 3 2c4 2 4 3 8 3l4-1h-4c-1 1-4-1-7-3l-5-2m-161 2 2 1v2c-1 3-1 3-2 2l-2-2v-4c1-1 0-1 2 1m67 3c4 3 6 4 10 4l5 2 1 4v1l-2 4c-3 2-4 5-4 8l1 3 1-4 1-2h1v1l1 1v-1l1-4v-1 1c1 1 5 1 7-1l5-1-1 8-3 11c-3 8-4 10-4 17a43 43 0 0 1-2 16l-5 6-1 1-3 1h-1l-8 2h-11a211 211 0 0 1-42-5l-2-3-1-6-4-4v-4c2-1 1-4-1-4l-1-2h2l3-2-1-6v-1l7 2h1a68 68 0 0 0 6-4l1-1 4 2 1 1 4 2 2 1c4 1 10 0 14-1s9-4 9-5v-1c4-5 5-9 5-14l-2-8v-4h1c1 0 2-4 0-8s-2-4-1-5l1-1 1 1 4 3m-54-4-1 3-1 1-2 1-1-1 1-1 2-2 2-1m-49 1v1l-1 2v2l-1 2v-4l1-2 1-1m110 2h-2l-1-1h1l2 1m86-1 6 2-2-1-4-1m-185 2 3 1 1 2a45 45 0 0 0 8 13 46 46 0 0 0 9 7l-7-3c-5-4-11-11-15-19l-1-2h1l1 1m66-1-1 1h-2l-5 1-3 2a20 20 0 0 0-9 13l-1 4 1-1v-3l1-1 3-5 6-6 1-1 3-2h6a273 273 0 0 0-3 26 164 164 0 0 0-2 12l-5-1 8 2 1-6a127 127 0 0 0 1-10v-1h12v-14h-6v6l1 4h-7l1-3 1-9 1-7c5 1 10 4 13 9l1 1a23 23 0 0 1 3 9v9l-5 1c-7 1-8 2-7 4h9c-3 5-9 8-13 8h-4c-4 1-7 0-7-1h-1l-2-1-1-1a65 65 0 0 1 1-11 123 123 0 0 0-9 0l-1-3v-2 4l1 1v1l1 2-2-1c-3-6-2-15 2-21a28 28 0 0 1 10-8h1a54 54 0 0 1 7-1m4 1 4 1h-1l-4-1h1m-81 0c0 1 0 1 0 0 0 0 0-1 0 0m63 0h3l-1 1-2 2-2 1v-1l-1-2v-1h3m-76 1-1 2 1-2m54 2-2 2v-2l1-1c1-1 1-1 1 1m12-1c1 1 2 1 2 3v1l-1-1a84 84 0 0 0-4-1l3-3v1m33 0h-1v-1l1 1m-42 0-1 1h-1l2-1m-26 1 11 3h2l2 2 1 1-2 1-8 2c-3 1-3 1-4-1l-4-9 2 1m179 0c0 1 0 1 0 0 1-1 1-1 0 0m-161 1-1-1h1v1m22-1 1 1v2l-1 1-3 7v1l-1 1c-3 1-7 1-12-1h-1l-1-1h1l3 1 4 1 1-1a32 32 0 0 1-3 0l-4-3-1-1h1c3 5 11 4 14-1v-6l1-1h1m-28 2 1 1h-2v-2l1 1m166 0-1 1 3-2-2 1m-146 0 3 1h2v1c0 4-5 7-9 5l-3-3 3-2 1-1h-1l1-1h3m-13 1h-1v-1l1 1m-47 3-1 2-1-1 1-1 1-2v-1h1l-1 3m108-1-1 1 2-3-1 2m-4-1 1 1 1 2v1l-3-4v-1l1 1m-55 0-1 1v-1h1m156 1-1 6c-1 7-1 7 1 9l2 1h-1v-2c-1-1-2-7-1-14 0-1 0-1 0 0m-204 4v2l-1 1v-2l-1-1v-1l1-1 1-2v4m235-3h1-1l-1 1v-2l1 1m-187 1 1 1 1 1 2 2h-1v-1l-5-2-1-1 1-1 2 1m192 0v4l-2 3h-1l-1-3v-4h4m-47 1 3 11v-1l-2-7v-3l-1-1v1m-116 1-2 2-2 3-1 3-1 2a105 105 0 0 1 6-2s2-8 1-9l-1 1m-66 5 1 3v2l-2-3h-1v1-1l-1-3v-2l1-2 1-1 1 2v4m-40-2 2 8 1 3v10a123 123 0 0 0-2 11l-1-1a40 40 0 0 1-2-34c1-1 1-1 2 3m174-1 4 5c2 2 3 4 6 5v6l2 3 1 3v1l-1 2-2 2c-1 1 0 3 1 3l-3 10-1 1c-1 0-3 2-3 4v1h-1l-3 3v6c1 1 1 1-1 8-1 2-1 2-1-1-1-6 0-15 1-21l-1 1-1 1-1 3v5a42 42 0 0 0 2 18c1 5 3 8 5 11a74 74 0 0 1-3-3c-3-5-5-11-6-19a217 217 0 0 1 2-43l1-2 1 7-1 23c2-4 3-5 3-11 1-9 1-12-2-22v-8c0-2 0-3 1-2h1m-15 0h-1 1m13 1v-1c-1 0-1 0 0 0v1m-201-1a66 66 0 0 0-1 7l1 13a65 65 0 0 0 10 32l-2-5c-6-13-9-28-7-44v-2l-1-1m60 4c0 1-1 1-1-1l-1-1h1v-1l1 1v2m127-2v-1 1m117 0 2 5-3 3v1h-1c-1-2-2-2-4-2l-2-1 2-6h6m-253 1h-1v-1l1 1m-49 0-1 7 1 15c0 6 3 13 6 20l1 1v-1l-1-3c-5-10-6-18-5-29a916 916 0 0 0 0-7v-3h-1m53 2 2 1h2l1 1h1v2a200 200 0 0 0 4 14l-3-1 1 1c2 0 3 3 3 8 0 2 0 3-2 5v1h1c2-1 3-7 2-10a11 11 0 0 1 2 5l1 3v3l-1 1h-6c-8 0-9-1-12-9l-1-7 3-3 2-1h1-3c-3-1-6 1-6 5-1 3 5 13 8 15 2 2 16 2 16 0a34 34 0 0 1 3 9h-2l-6-2-3-3-4 1h-1l-1-1c0-1-1-2-3-2l-2-1-3 1h-1v-1c1-2 0-2-1-3l-2-1h-3l-1 1-1-1-1-1-2-7v-3c-1 0 0 0 0 0 2 0 2-3 2-6-1-2-1-3-3-3v-5c2-5 12-7 19-6m13 2c1 0 1 0 0 0 0-1 0-1 0 0m2 2a41 41 0 0 0 4 1l2 1 5 7 2 3 2 2 2 2h1l-1 1v1l-4-3a130 130 0 0 0-8-12l-2-1h-3l-2-1h-1v-2h1l2 1m37 1h-3v-1l2 1h1m200 1 2 17a61 61 0 0 1-3 15l-6 13a54 54 0 0 1-10 10 47 47 0 0 0 6-6c2 0 6-8 8-14l2-4a53 53 0 0 0 0-30v-2l1 1m-260-1c-3 0-4 1-4 2v1c3-3 12-1 14 3l2 1c1-1-2-3-4-5-3-2-5-2-8-2m125 0-4 4 1 1 5-3 2-2h-4m45 1 3 1v3l-1 1-2 2v-1a78 78 0 0 0-1 0c1 2 1 2 3 0l2-2-3 4-1 1-1-2-2-3v-5h1l2 1m83 0c2 2 3 6 1 7-1 2-4 2-5 0l-1-1h-1v-2c0-3 1-4 4-4h2m6 3v3a51 51 0 0 1-3 31l-5 9-12 11c-3 1-12 0-15-2v-1c-1 0-1 0 0 0l-1-1c-4-4-6-6-8-12a43 43 0 0 1-3-14c-1-1 0-1 1-1v2c1 8 4 14 7 17l3 3c8 7 16 7 24-1 5-5 10-18 11-27a99 99 0 0 0-1-14l-1-4v-1h1l1-1v1l1 2m-236-2h2v2l3 4-1-3v-2l2 1 1 1a253 253 0 0 1 7 12h2v1a457 457 0 0 1 22 8l-1 1c-2 1-1 4 1 5l1 3-4 5-1 4v1l-2-2-2-1c-6-4-10-7-12-10-4-4-6-5-7-1v2l-1-1-2-1h-3c-1 0 0 0 0 0v2l2 1 2 3-2 2-4-11v-2l1-1 3-1 1-1-2-1h-4a318 318 0 0 0-4-21l2 1m-29 1 1 6c1 2 1 1 1-1l-1-4c0-2 0-2-1-1m180 0v2-2m3 1 3 3a30 30 0 0 0 17 8l-1 5c1 2 3 3 6 4h1c2 3 3 4 6 4h2v1a46 46 0 0 0 10 24l3 4h1l12 3c2-1 5-1 7-3h1v1l2 2a83 83 0 0 1 14 21l6 11v1l-1-1c-7-3-16-3-22-1h-11l-7-2-4-1-16-8a69 69 0 0 0-29-11h-17l-1-1-3-6-1-6a67 67 0 0 0 2-8l1-2h1c4-1 5-3 5-6v-2l-1-1h1c3-1 3-5 1-6l1-3 2-7 1-1c2-1 2-4 1-5v-3l1-1 2-3c2-1 3-4 2-4h2m-97 3v1l-1-2 1 1m-2-1 1 1c0 2 3 4 4 5 2 1 2 2 1 2h-1l-2-2h-2v1l-1-1v-1h-1l1-1v-1l-1-2 1-1m-85 1c-1 1 1 6 2 6v-1l-1-4-1-1m20 1-2 1v1c1-1 3-2 2-3v1m-23-1v6l-1 1-2-4 1-2v-1h2m256 2c2 2 3 4 2 6-2 4-8 2-9-2 0-2 2-5 5-5h1l1 1m20 2c2 2 1 9-1 14-1 1-1 1-1-1v-14h1l1 1m-128 0c-1 6-3 8-10 9l-13 6c-4 2-10 4-15 3l-3 1 2 2a217 217 0 0 1 8-2c4-1 6-1 11-4 5-4 7-4 11-5 8-2 11-5 10-9 0-2 0-2-1-1m-145 1c-1 1 2 6 3 6l-1-2c-1-1-2-3-1-4h-1m84 0c1 1 1 1-1 2l-2 2-1 1v-3l3-2h1m-9 2 2 1-1 1h-2l-3-1 1 6c1 2 0 3-2 3l-1-2v-1l1 1v-5l-1-3 1-1 5 1m144-1 5 2-2-1-3-1m26 0v1l2 3c1 1 1 3-1 5l-3 1c-1 1-3 0-4-1-2-2-2-7 1-8l5-1m-224 1v3l1-3h-1m242 0-1 2v1c0 1-7 8-9 8l-1 1h-1l1-1 1-1c2-1 6-5 6-7l1-1 2-2h1m-244 0v4-4m218 1s1 0 0 0c0 0 0 1 0 0h-1l-1-1h1l1 1m-159 0v2h1-1v-2m78 5-1 11c0 14 1 22 4 29v3c-1 3-4 6-8 8l-1 1 1 1 1 1h3l11-2a25 25 0 0 0 5 2h5c1 0 0 0 0 0-3 0-4 0-6-2l-1-1h2l14 1 9 3 15 7a59 59 0 0 0 21 9h-1l-9 2h-1 14l-1 1-2 1c-2 2-8 12-11 20-5 13-5 25 0 35a36 36 0 0 0 9 12h-3c-9 1-12 1-19-1-5-1-7-2-7-3l-1-2c-3-4-2-3-2-5l-4-11-3-7c-3-8-2-7-2-9l4-8 4-5 3-3v-1 1c-4 2-8 8-11 13-2 2-1 2-2 1-3-8-6-12-10-15l-2-3-7-5-1-1c0-6-1-8-3-11l-3-4 1 4 4 8a36 36 0 0 1-1 11l-2 8c-4 10-5 15-4 20l-2-5c-2-4-2-8-1-14a1148 1148 0 0 0 3-8v5c-2 6-2 10-1 15v3-2c0-7 1-12 3-17a88 88 0 0 0 2-9c1-2 0-9-1-10v6l-1 1-1 1 1 1h1v1h-2v1l1 1v1l-1 1-1-1v-1l-1 1v1l-2 3a634 634 0 0 1-2 17v1-1l-4-4c-3-4-5-12-5-19s0-8 2-10c2-3 3-5 3-8v-2l2 1c3 4 5 7 6 13l-1 8 1-2 1-2v-1l1-1v-1h-1v-1c0-3-1-7-3-10-1-2-1-2 1 0l4 5v1-4a23 23 0 0 0-8-7l-3-1 1-3 8 5 1 1v-1l-3-3-5-3c-2 0-2 0-1-1h2l1-1-1-1-3-1v-2c-3-6-7-11-13-14l-5-3 3-1 7-1 4-2c5-3 7-8 7-16a281 281 0 0 1 4-18v-1 1l1 4m54-5 1 1h1l-1 1-1 3-2 1c-3 1-4-2-3-5l1-1h1a12 12 0 0 0 3 0m-157 2 6 2v1h-1a171 171 0 0 0-9-3l-1-1 5 1m26-1h1-1c-1 0 0-1 0 0m156 0h1v3l1 2c1 3-4 6-7 5l-2-6c0-3 4-5 7-4m-16 0v2c-1 2-2 4-1 6v1c-3 3-7 1-7-3l2-5h1l5-1m-116 0 3 1c1 0 1-1-1-1h-2m-86 1 3 5v-1l-2-4h-1m209 0 1 2v5l1 1h-1l-3 2h-3l-2-5c0-4 4-6 7-5m-225 2 2 3v-1l-1-1-1-1m61 1 3 1 1 1v1h-1l-3-1-3-3 3 1m7 0v1c-1-1-1 1-1 3 1 0 1 0 0 0l-1-1c-1-2 0-3 2-3m194 4-1 2-2 3 2-1-2 6c-1 2 0 2-3 4l-8 1-1-2-2-4-2-4h5v2c-1 1 2 4 3 3v-3c0-1 1-2 3-2l3-2 1-1 2-2c2-2 3-2 2 0m-230 1-1 1v-1h1m111 1v1c-2 3-6 5-8 5h-1l7-1c2 0 4-3 3-5h-1m-140 1 2 1 1 1c-1 2-1 3-3 2-3-1-3-2-2-4h2m218 3 2 10 1 2-4-14 1 2m2-1h1c0 2 1 3 3 4 2 0 2 1 3 2 0 4 2 6 7 6l1 2a249 249 0 0 0 7 8l1 1h-1c-10 4-22-7-23-22v-1h1m34 2-2 1h-1l1 1 2-2m-245 1c3 0 3 0 2 2v1h-2c-3-1-3-1-2-3h2m25 0 3 3 1 1c1 3 0 6-3 8h-1v-1c3-1 3-6 1-8l-1-1-1-1v-1h1m7 2 7 7 10 9-3-4c-4-3-4-4-1-2l6 4v20a173 173 0 0 0-1 4 80 80 0 0 1-19-8v-2l-3-8-1-7v-2l1-1c3-2 3-6 2-9v-1h2m-22 0c1 1 2 1 1 2 0 1 0 2-1 1l-3-1v-1l3-1m49 4 2 5a139 139 0 0 1-4 43l-6 7-1-3-1-3v-6a691 691 0 0 0 3-11 91 91 0 0 0 0-28l1-1 1-1 2-4h1l2 2m-3 0-1 1 1-1h1l2 2-1-2h-2m189 1c-2 5-5 8-8 11l-1 1-1-1-2-3-4-5 8-1a31 31 0 0 0 9-3l-1 1m-219 0v1-1c0-1 0-1 0 0m68 0v3c2 0 3-2 2-3h-2m-76 1c0 2 1 3 4 3h1v2h-1c-3 0-6-2-6-5v-1h1l1 1m4 1v1c-2 0-2-1-2-2h2v1m37 0 1 2v3-1l-1-4m155 3v1l-1-1-1-2 1 1 1 1m-189 3 1 4 1 2a137 137 0 0 1 7 42l-1 10c-2 11-9 24-16 28a64 64 0 0 0-4 2l9-10c3-6 6-16 7-26a197 197 0 0 0-3-45 117 117 0 0 0-1-7m14-4 9 9-3-3-3-4-3-2m-16 3-1 2v-1l1-1m37 3c0 1 0 2 1 1v-2c-1-1-1-1-1 1m-35 3v2l-2 2-1 1-4-3-1-2 2-2a115 115 0 0 0 3 1h1l1-2 1 3m39-2 9 1a187 187 0 0 1 24 4 1182 1182 0 0 0 6 1v8c-1 4-4 7-10 10l-2 1-5 1-25-1 1-7a349 349 0 0 0 2-18m-20 0 5 5 1 1v-1l-6-5m16 1v3l1-1c0-2 0-3-1-2m0 6v1c0 2 0 1 0 0v-1m0 5-1 5a46 46 0 0 1-1 6 121 121 0 0 1 1 2 41 41 0 0 0 1-11v-2m-80 1-1 2v-1c0-1 0-2 1-1m167 0 3 5v2a75 75 0 0 0-11 3l1-2c4-3 7-6 7-8m-134 1c0-1 0-1 0 0m-30 4v1l-2-4v-1l1 1 1 2v1m53-1a92 92 0 0 0 14 6l-1 2a309 309 0 0 1-2 12l2 4 1 3-1 3-1 1-2 1h-1c0-5-6-8-10-5 0-9-2-23-4-29h2l3 2m-25-1h-3 1l2-1h1l-1 1m-26 2 1 1 1 2v1-1l-3-3h1m23 0v1l-2 2v-4h1l1 1m-17 2 1 2-1 1-2-3c-1-1-1-1 1-1h1v1m-11 0-2 1-3 3-8 10-10 10v1l-1 1v-1c0-1 1-2-2 1-10 11-13 22-9 29v1h-7l-3 1-8 2a2542 2542 0 0 1-13 5l-1 1v5l1-1c5-5 11-8 20-10 8-2 13 0 20 7 4 4 6 5 11 3 2 0 3-2 4-4 1 1 2 3 1 5-2 12 3 21 13 26l2 1v16h2l-1-4 1-3v-2l1-3 4-2v6l1 1v1h-1l-1-1h-2l2 1 1 1 1 1-1 2h-4 1l3 1v1h6v-6l-1-1v-5c1-1 4 1 6 3h1l-1-2-6-2-1-1 7 2h1v-1l-4-2h-1l4 1h1c0-2-5-2-8-2v-3c-1 0-2-1-1-3v-6h-1c-1 0-2 0-1-1h-1c-1 0-1-3 1-3l1-1h-1l-1-2c-1-3-2-3-1-4h1c4 2 6 4 8 7l1 1-2-5a20 20 0 0 0-7-4 69 69 0 0 0-11-5 266 266 0 0 0-14-6l-2-2-4-3-4-6c-1-5-1-13 1-18 2-4 4-7 10-13 5-4 6-6 8-9l1-3-2 3-7 8c-6 5-9 9-11 13l-1 2c-8 8-8 20 1 21l-4 1h-3c-3 0-2 0-3-2-2-5-2-11 1-17 4-6 6-8 20-22a50 50 0 0 0 12-15m15 0-1 3-1-3h2m15 2h1-1l-2 1h-1c0-1 2-2 3-1m-5 0-1 2v-3l1 1m-1 3v1l2 7c3 1 7 6 9 10l1 1v1l1 1h4-1l-4-4v1l-1-1 1-4 1-1 1 1a493 493 0 0 1 7 5l3 3v2l-1 3v7l-2-1h-2l-1-1h-2v2l4 8v2c-1 2-1 2-2 0l-5-10a39 39 0 0 1-2-3l-1 2v1l1 1c3 4 5 10 4 13s-4 6-6 6-2 0 0 0l4-5c2-4 0-10-3-12l-1-1-1 3c0 6-3 10-8 12-2 1-3 0-7-1l-2-1c0-2 2-5 4-6 3-2 6-7 7-10s0-9-1-14a99 99 0 0 1-2-6c-1-3-1-3 1 1 4 6 5 9 5 14l2 4 1 3h1v-1l-1-1h1v1l1-1v-1l1-1-1-2v-10l-1-1-6-8v1l3 11v1-1l-5-9c-2-3-4-13-3-14h1l1 2m-15-2h1l-1 2-1 8v3-12c0-2 1-2 1-1m6 1 1 1 1 2 3 6c5 12 5 19 0 30l-4 5-1 1v-1l-1-12a114 114 0 0 0-5-15v-3l1-12 1-2h1l1-1 1 1h1m6 2v4l1 2v1-1c-2-1-3-6-3-7l1-2h1v3m10-2v4l-2 2-1 1v-3h-2l1-2c0-1 0-2 2-2h2m18 10-1 9v2l-1-1a54 54 0 0 0-3-4v-1l1-3 3-11v-1 1l1 9m35-7h2l2 2 21 12 7 4c2 1 2 15 1 17-2 5-10 8-19 8h-3v-7h-1l-5-5-5-3-12-5h-1l-1-1v-2l1-3v-1l6-5c2-2 4-9 4-11l1-1 2 1m-6 1v1-2 1m19 0v-1c-1 0-1 0 0 0v1m-64 1v2h-1l-2 1-1 1v-1l2-2 1-1h1m44 2-2 6c-1 0 0 0 0 0 2-1 2-2 3-5 0-1 0-2-1-1m-43 1 1 2v1l1 2v1l-1 1v1-1c0-1 0-2-1-1h-1l1-2v-1l-2 1-1-1h-1v-1l1-1 1-1h-1 3m39 6a153 153 0 0 0-2 2h-1l1 1 3-3h1-2m181 4-1 1-1 1h-1l-2-1c-2-1-1-1 2-1h3m-106 1c1 1 0 2-1 3l-2-1 1-2h2m100 0 2 1 1 1-1 2-2 2-1-2-2-3v-1h3m-4 3c4 5 3 4 3 6h-2l-1-1-1-2-6 1c-2 1-3 0-1-2h2c2 0 3-1 2-3l2-1 2 2m-204-2v1l1-1h-1m21 1c2 1 3 3 2 5l-1 1-3 1-3-2h-1v-4l1-1h5m178 1-1 1 1-1c0-1 0-1 0 0m-93 0v2l-2 1h-1 4l-2 3v4l-1 1-1 1-2 1v-3c0-1 0-2 2-3v-1l-2 2a70 70 0 0 0 1-4v-1c0-2 2-3 4-3m-103 2v1h-1l1 1v1l2 2v-3h1l-3-2m-18 5-1 6-2 3a88 88 0 0 0 3-13v-1 5m117-5-1 1v1l1-2m-73 3-1 1v1-1l-1 1-1-1c0-2 1-2 2-2h1v1m174 0 2 2v1c-2-2-4-1-5 1l-1 3h-8l3-6h1l4-1h4m-178 0 1 3 1 2v1h-3v-6h1m108 1c1 0 1 0 0 0h-1 1m-117 0 1 1h1v1l-1 1v1l-1-1-1-1-1-1 1-1v-1 1h1m15 0 1 1h1-1l-1 5h-2c-1 0-2-3 0-4l2-2m-9 0 1 3-4 1c-1-2 0-4 2-4h1m114 3 2 2-3-2-1-2 2 2m-43 1 1 1-1-1-1-1 1 1m7-1-1 1v1h1a21 21 0 0 1 0 5l-1 3v4l-1 1 1 3v4l-1-1c-2-8-2-14 0-19l1-2h1m103 1h1l-2 3-1 3a526 526 0 0 1-5-2c3 0 4-1 5-3s2-2 2-1m-188 0h-1v1-1h1m-80 2c-1 4 0 10 2 15 1 1 1 1-1 1-6-2-6-9-1-17v1m207 2 3 4 2 3c-2-1-2 0-3 1h-1v-2l-1-5v-1 2l-1 1v-2l-2-2-1-2 2 1 2 2m-34-1c1 5 3 9 7 14l5 8h-1l-2-1-2-2-2-1c-3-2-4-3-5-7l-1-4v-8c1-1 1-1 1 1m58-1-3 4 5-5-2 1m-33 1 1 2h-2l-1 1v-1h-1c1-4 1-4 3-2m-106 0c-2 0-2 2 0 2v1c-1 5-5 4-5-1v-1h1l2-1 1-1h1v1m14 1-1 1-1 1v1l-1-1h-1v2l1 1 2 3c2 0 3 1 2 2v2l1 1v2l1-1v-2l2-1 2-2h-3 1c0-1 3-1 5 1l-3-2h-1v-1h-2s0 1 0 0a66 66 0 0 1-2-1v-5h1l-1 1h-1l-1 1v1-4m95 4 2 5h-4l-1-2-1-3c0-2 0-3 2-2h1l1 2m65-1-1 1v1h-2c-1 0-2 0-3 2h-1c-1-1-3 0-3 2h-1v-2c1-2 0-2-1-2h-1v-2h13m-12 3v1c-1 3-1 4 1 4l2-2 1-1c1 3 3 2 3 0l3-2v2a58 58 0 0 0-2 4l-1 1-7 1h-4l2-8h2m-192 3v2l-1 1v-1h-1v-1l1-4 1 3m150-2 2 3h-1v1l2 1 1 3v2l1 1v2h-1l-2 1v-2l-1-1v-2h1v-1h-2l-1-1v-1l-1-1v-5c-1 0-1 0 0 0h2m-146 3v5h-1l-1-1 1-1v-3c0-2 0-2 1 0m104-1h-1s-1 0 0 0h1m22 0v1-1s-1 0 0 0m-153 5 8 3 13 4-3 3-1 1-2-1-8-4c-4-1-5-2-12-8l1 1 4 1m155-1c0 4 1 6 3 9a31 31 0 0 0 7 10l1 1h2v-1l-1-3v4-6l-1-1-1 2-1 1v-1l1-2 1-2-6-9v7l-2-3-1-1v-1l-2-4m68 1v1l-1 1h-4c-1 0-2 3-1 4l1 1v1c-4 1-7 0-4-1l1-2c0-2 0-3-3-3h-1l1-1 3-1a150 150 0 0 1 8 0m-89 2-1-1 1 1m-183 1 2 1 9 5c3 2 4 3 5 2 2 0 3-2 3-3l2 1c2 1 0 4-2 5s-5 0-9-4c-6-4-11-7-15-7v-1h1l4 1m98-1-1 1c-5 2-7 3-6 5a44 44 0 0 1 2 3l1 2 4 3-1-2-3-5c-1-1-1-1 1-2h3l4-1h1l1-1v-2l-6-1m62 1c-1 1-6 5-8 5a79 79 0 0 1-10 3l-4 1c-2 2 2 4 8 5 6 0 7 0 10-4l3-3a14 14 0 0 0 3-4v-3h-2m112 0-1 4v4h-3l-3 1-3 1h-3v-4l1-5c3-1 3 0 3 1l-1 1c-2 1-2 5 1 4l6-1c1-1 0-4-2-4v-1l1-1h4m-60 1v1l1-1h-1l-1-1 1 1m0 2 2 4h-1l-2-2-1-2v-2l2 2m8-2v3l-1-2c0-1 0-2 1-1m-202 2-2 5-5-3a64 64 0 0 0-4-3h1l6-1h1l1 1 2 1m99-1 1 1-1-2v1m110 3-1 3v-4c1-1 1-1 1 1m-110-1v1l-1 3v3l-1 1-1 5v1l1 2v3l1 1 1 1v1l1 2 1 3v3l1 3h1l1 1h1l-1 1 1 1c1 2 3 3 5 3h5v-1c1-1 0-1-1-1l-1-1-2-1h-1v-2h-2v-3l-2 2v-1l-1-1v-1l-1-1-1-1v-1l-1-4-1-2v-1h-1v-4c-1-1 0-2 1-3l-1-1h-1v1-1l1-2v-4l1-4-2-1m81 2v1l-1-1-1-1 2 1m-18-1v1l1-1h-1m0 1 2 1v-1h-2m2 1 4 3 2 1 2 1h2v-1h-1l-1-1-1-1h-3l-2-1-2-1m30 1 1 1-1-1c-1-1-1-1 0 0m-36 2c0 1 0 1 0 0v-1 1m-148 0v2a31 31 0 0 0 2 20l-3-5-1-4v-4l1-8c0-2 0-2 1-1m2 0 1 1 3 9c2 2 3 5 3 8l2 7 1 2v2l-2-1-6-6c-4-6-5-15-3-22h1m56 1 1 1 4 2c5 4 9 10 10 15a43 43 0 0 1-4 27h1l2-3 1-3h1c5-4 7-14 3-20l-1-2-4-5-2-2c-3-6-10-11-12-10m-51 1 2 1 1 1 1 1-3 3h-1l-1-3v-2l-1 1v-2h2m237 1v1l1 4 2 2-2 2h-2c-3 2-6 3-7 2l-4-8 5-2c4-1 6-2 7-1m-92 1h2-2m41 1h-1 1m-39 0v2h2v-1h-1c1-1 0-2-1-1m-142 1v1h1v3h1l1 1-1 1 1 1 1 5 1 1h-1 1l1 2 1 1h-2l-1 1-2 1h-1l-1-1v-4h1l-1 1h-1v-2l-2-7c-2-3-1-4 2-5h1m65 3 2 2-2-2-2-2 2 2m111-2h1-2 1m2 1v1l1 1c5 4 9 8 11 13 2 6 1 15-3 20l-1 1 1-1 5-8v-10h-1 1l1-1c-1-4-5-12-8-12l-1-1-1-1-2-1v-1h-2l-1-1v1m49-1c-2 1-3 2-2 3h3c1 0 2-1 1-2l-2-1m-228 4v1-1m16 0a70 70 0 0 1 3 7c2 4 2 5 1 6l1 3 1 1v4c1 0 0 0 0 0h-1l1 1 1 1v1l-1-1h-1l1 1v1c-1-1-1-1-1 1l-1 1 2 1 1 2v5h1l1-1v-14c-1-9-4-17-8-20h-1m113 2-3 1c-3 2-6 3-11 3l-13 1 1 1c5 1 14 1 20-1l9-4c1-1 0-2-3-1m111 4h1l1 2 2 1-1 1-1 1h-3v-3l-4 2 1 1v2l-6-4-2-2h1l1-1c2 3 2 3 4 2 4-2 5-3 6-2m-177 1v-1 1m18 1v-1 1m84 1 1 2v-2h-1m-94 1h-1v-1l1 1m6 4-1-2 1 1v1m-71-1v1c-1 0-1 0 0 0h1l1 1c0-1 0 0 0 0v1h-2l1 1 1 1v1h-3c-2 0-2 0-3-4l2-2h2m13 1 1 1v-1h-1m166 3c1 6 0 12-5 16l-1 2h3l1-1c2-4 4-12 3-16l-2-3 1 2m-97 0v1-1m-83 1-1 1 1-1h2v-1l-2 1m94 2v2h-3l1 1h1l2 1h2l1 1 1 1h-1c-1 1 0 1 1 1l1-1 1 1h1c1 0 2 0 2 2h3l-1-1v-1c-1 0-1 0 0 0h1l-4-3-1-2c0-3 0-2 0 0v2h-1l-1-1-2-1-2-1h-1v-1h-1m-95 0h1l-1 1-1-1h1m106 3-1 1 2-1h-1m-55 2a60 60 0 0 1-4 9v1h4v-2a54 54 0 0 0 1-8c0-2 0-2-1 0m58-1v1-1c0-1 0-1 0 0m-2 0-1 1 1-1m92 0-8 2-3 1-1 1-4 6h-1l-1 1h2l1-1 2-3 1-1 1 4 1 1h1v-1l-1-3c0-1-1-1 1-2h2l6 1h3l-2 2-3 3 9-9-6-2m-86 3h-1l-1 2c1 0 0 0 0 0l-1-1v2l1 3h3v1l2 1h2v-6c2-2 1-2 0-1l-1 1v1h-2v-1l-1-2-1-1v1m47 2h1-1m-48 0c0-1 0-1 0 0m49 1v1l2-1h-2m-1 1v3l1 1h1l-1-1v-2l-1-1m-169 0-6 4 6-3c2-1 2-2 0-1m85 1-2 2v1-1h1v1h13l-2-1-3-1-3-1a109 109 0 0 1-4 0m129 1-2 1v1h4v-2h-2" fill="#0d2726"/><path d="M133 51a60 60 0 0 0-23 6l-2 1-10 9-1 4-1 1a37 37 0 0 1 5-12c2-4 5-7 7-8h1l-1 1-1 1 2 1h2l1-1h-1c-2-2-4-3-6-1a26 26 0 0 0-8 10l-2 6v1-1h-2l-2-1h-1c-4-2-10 0-16 5l-1 1h1v1l-1-1v1l-3 4c-2 2-2 2 0 1h3l-7 6-1 1v-1l-1 1c-4 3-9 10-7 8a126 126 0 0 1 15-11c5-3 6-3 1 1a162 162 0 0 0-24 20l-8 12v1l1-1 1-1a97 97 0 0 1 24-25c-4 2-15 14-20 22-8 10-14 28-12 37 1 2 0 2 0 0v-16c0-2-2 2-4 6 0 2-1 2-1 1v10l1 1 4 3v2l1 2c0 3 0 3 1 1l3-5v1a12 12 0 0 0-3 12h1c0-1 0-1 0 0l1 3c1 5 2 6 3 5h4l-1 1 1 2v5l-1-1-1 1-2 1v5l-1 11a88 88 0 0 0 2 25l1 2 1-6 1-1v-3c-2-5-3-17-2-22v-2 3l1 4v3l3 9v1l1-3 6-18 1-3-1-2-1-3-1-2v2c0 1 0 1 0 0l-3-9 1 2 1 2h1c-3-11-3-13-3-24l1-14v-1l-1 1v4l-2-1v-4c1-1 1-1 0 0h-3l-1-1h-1l1-3 1-5 1-2v-1 1l-4 7c0 1 0 1 0 0l4-12 1-1 2-3 4-4a27 27 0 0 1-2 5v1c-1 2 0 1 1 0l3-4-1 1v2h1c1-2 2-3 3-2v1l-1 2a51 51 0 0 1 3-2l1-2c1-2 3-4 4-3l-1 1c-2 2-8 12-7 13h1l-2 11v1-1c-1-1-1 2-1 8 0 8 0 10 2 18a71 71 0 0 1 1 8l1 1v1l2-5a40 40 0 0 0 0-7l1 5v10l1 8v-5 1l2 5v-2c-1-4 0-8 1-9l1-1v6l1 9v4l1 2a89 89 0 0 1 4 15l2-1 2-1c2 0 2 0 1-1l1-1h1l1 1h1v-1l1-4 4-5 1-2v1l1 2v1-1l2-3v-12l1-2v4l1-1v-2l1 2a993 993 0 0 0 0 8l-1-2s1 11 3 16v4a142 142 0 0 0 8 22l-1-3a198 198 0 0 0-3-15 190 190 0 0 0-2-15v-5l-1-1v-5a275 275 0 0 1-2-19 59 59 0 0 1-2-15 116 116 0 0 1 3-37v7c-1 3 0 7 1 7v2l1 4h1v-5l1-3v-4l1-3 3 8v-5l1-5a76 76 0 0 0 3 8v-2a222 222 0 0 1 1-2l3 2h1v1a77 77 0 0 0 3 16l-5 1c-2 1-2 1-3-1v-1l-1-1v-3l-1 4v4l1 4-1-1-1-1-1-1v-1h-4l-3-5h-1v12l-2-2v-2 9a41 41 0 0 0 6 15c-1 2 11 15 15 16l1 1a29 29 0 0 0 6 4l4 1v-1l-13-10-1-2a76 76 0 0 1-10-22l5 12 5 9v-2a318 318 0 0 1-5-28 77 77 0 0 0 11 26l5 7 1 1-2-7-2-5-2-7 3 5a97 97 0 0 0 9 21l4 5 2 2 1-1-1-3a185 185 0 0 1-10-31l1 2v2l1-1h1l9 7h2v3a242 242 0 0 1 1 9l2-10h1v2a170 170 0 0 1-1 4l1 5v2c0 1 0 1 0 0 0 0 1 0 0 0l4-8c1-5 1-4 2-4v1l1 1 1 1v-3l-1-1h-1v-1a111 111 0 0 0 3-17c0-3 0-3 1-2l1 2 1 7-2 10v3l1-7a118 118 0 0 0 2-10l1 1 7 6 2 1v1c0 2 0 2 1 0 0-1 0-1 0 0h1v14h1l1-3v-6l1-4h1-1v-1c1-8 1-21-1-28a65 65 0 0 0-6-19v2c-2 4-5 5-8 3h-1l-1 2-1-4v-2l-1-2v-3l-2-5 1-1v-1c-1-4 0-5 3-2l1 1h2v-1h4v1l1 1 1 2v-1l-1-3v-1a36 36 0 0 1 5 12l1 4v5c3 9 5 17 5 27v6a86 86 0 0 1 2 8l4-9-3-24a121 121 0 0 0-12-30l2-1v-1c0-2 0-2 1-1l1-1 1-1 1 1a32 32 0 0 1 7 12v2h-1l-4-7h-1l2 2 1 3 2 3a68 68 0 0 1 4 6h1l-1-1-1-3v-2a42 42 0 0 1 4 12 86 86 0 0 1-1 24l-1 1v2l-1 1v1l-2 4-5 14-1 1 1-1 2-3v-1a50 50 0 0 0 5-10 36 36 0 0 0 2-6v-1l1-1a34 34 0 0 0 7-11 71 71 0 0 1-1 17l4-11a67 67 0 0 1-2-6l-1-2 1-1v1a69 69 0 0 1 5 16v2l-1 2-1 3-1 1a11 11 0 0 0 3-4v1-1l1-3c2-6 3-13 3-21v-1l1 1 1 2 1 3 2 8v2-1l-1-10 2 1 10 5 1 1 1 2v-2l1-1v2h1l4-1-1-5v-2l-1-1h-1v-1c0-2 0-2 2-3v-2a105 105 0 0 0-8-17 96 96 0 0 1 5 16v-2l1-1v1l-1 4v10l-1 2h-1l-2-4c-2-8-10-22-16-28v-2l8 11 3 4c3 3 6 8 7 12v-1c-2-14-9-27-18-35l-2-1-1-1c2-2 11 8 15 15l1 2a57 57 0 0 1 6 17c0-4-2-13-4-16a94 94 0 0 0-16-27l-6-7-1-1a84 84 0 0 1 17 19c7 9 14 23 15 30 0 2 0 2 2 2h1l1-2c3-8 2-15-1-22l-1-4c-2-8-6-14-14-21l-5-3 3 2 9 9 5 10c0 2 0 2-1 1-2-4-6-8-9-10l-3-4c0-1-6-9-10-12a62 62 0 0 0-14-9l-12-4h-10l4 2a49 49 0 0 1 7 4 52 52 0 0 0-10-4l-7-1h-5a52 52 0 0 1 21 11c8 6 18 18 23 28l-2-3c-8-12-13-18-22-24-7-5-17-10-25-11h-5a47 47 0 0 0-8 3l-4 1v1h2l2 1 2 1-9-1c-2 0-2 0 2 2a84 84 0 0 1 11 7l2 1-6-4-13-4h-1l-2 1-14 10-2 11c-1 1-1 1-1-5v-4l-1 1-3 4-2 3-7 11a113 113 0 0 0-10 32c2-4 2-3 0 0l-2 5v3l1-3 1-2 1-2v2l-3 13v4l3-6 3-9v-2l1-3 1-1-1-1v-2l-1 1-2 2v-2l4-11c0-2 1-2 1-1a52 52 0 0 1-1 8c0 2 0 2 1-1l2-2v2l-4 10-1 5c2 0 0 10-4 14l-1 7v3a61 61 0 0 0 8-18l1-11v3a119 119 0 0 0 0 19v6a35 35 0 0 1-9 29l-3-5v-2 11h-1v-1l-1-12v-3l-1-2c-1-1-1-1-1 2l1 12v1c-2-4-2-12-2-19l-1-8v-1l-1-1-3-2-2-1c-5-7-7-22-5-31h1-1c-2 1-2 1-2-2v-2 1l-1 2-1 2-1-1a182 182 0 0 1 3-15l2-3c1-1 1 0 1 2v2c0 1 0 1 0 0l2-3v2l-2 7 1-3a47 47 0 0 1 8-14l-1 3-1 3a679 679 0 0 0-2 6l3-4v1a130 130 0 0 0-5 13c-3 8-4 12-3 20 2 9 6 17 9 17l1-1-1-5v-2l-2-1-1-2c-5-8-5-17-1-27a145 145 0 0 1 13-28l-3 8a399 399 0 0 0-10 23v15c0 3 2 7 3 8v-3c-1-23 7-47 22-65l1-2v-4c0-1 0-1 0 0l1 2v1l2-2a92 92 0 0 1 5-6l-3 1h-1a69 69 0 0 0-1-3l1-1v1c1 1 1 1 1-1l1-1 2 3h2l1-1-1-1v-1h1l1-1h1l1 1v-1l2-1v-1l-1-2h1l2 1 1-1h-1l-1-1 2-1h1l-2-3v-1h-1v-1c1-1 5 1 6 3v1h1v-1c0 1 0 0 0 0h2v-1l2-1 2-1v1-1h-5l-1-1 2-1h4l1 2 3-1a90 90 0 0 1 24-6l-3-2h3c2 1 3 2 8 1h1l-2-1-3-1-14-3c-3 0-3 0 0-1h15c7 1 12 3 16 6l1 1v-1c-2-2-6-5-11-6h-23l-6 1a58 58 0 0 0-22 4h-1l-2 3h-2v-1l-2 1-3 1a45 45 0 0 1 13-7h1-1a53 53 0 0 0-8 3c-1-1 3-3 9-5a68 68 0 0 1 34-4c-1-1-12-2-17-1m0 4h1-1s-1 0 0 0m26 3 3 3v1h3v-1l-2-1-3-3-3-1 2 2m-46 4-3 2c1-2 2-3 3-2m-19 2-4 2 2 1a344 344 0 0 1 2 0l1-2v-1h-1m25 0 1 1h-1l-2 1h-1l-1 1h-1l4-3h1m-4 1-1 1h-2l1-1 2-1h1l-1 1m8 1-2 1h-3c0-1 4-2 5-1m-34 3 1 1h-1l-2-1h-1c-1 0-1 0 0 0v-1l3 1m0 1v2s0 1 0 0h-2v1h-4l-1 1v-1c-1-1 0-1 2-2 3 0 3 0 2-1h3m11 1-3 3v-1l3-2m2 0-2 3-2 1 3-4h1m9 1h-1 1m4 1-1-1 1 1m-21 1 1 1-2-1h1m85 0h1a15 15 0 0 1-3 0h2m-94 1h-1l-4 1 1-1h4m9 1h1l-1 1-2 1h-1l-2 1h-1c1-2 6-4 6-3m-9 1v2l-1 1-2 2-1 1-1-1-1-1h1v-1l2-1c1-1 0-1-1-1v-1h4m14 0c1 0 1 1-1 1v-1h1m-4 1-1 2 1-2 1-1-1 1m-5 2v1h1l-1 1c-1 2 0 2 1 1l1-1v2l3 2c1-1 1-1 1 1v2h-5v-2 1l-1-1-1-1-1-1v-1l-1 1c-1 2-1 1 0 0s0-1-1-1h-1l1-1h-2l-1 1 5-4h2m201 0v1h2l-2-1M62 86a915 915 0 0 0-9 5c-4 3-9 12-10 18v1-1a256 256 0 0 0 8-8l12-15 1-1-1 1-1-1v1m116 6 6 7 2 4 1 1 3 6-2-2-2-4v1h-1l-2-3-2-2v-1l1 1-5-8h1m68 3c-1 1 0 1 1 1l2 1v-1c-1-1-2-2-3-1m-69 5c1 1 5 5 5 7l1 1-1-1-1-1 1 1c1 2 2 4 1 5v1l-1-2a38 38 0 0 0-6-8l1 1c0-1 0 0 0 0l2 1v1-1l-3-4c-2-2-2-2 1-1m42 5c6 8 7 8 7 15v6l1-5v-4l1 1c3 7 3 13 0 20-1 2-1 2-1-1a95 95 0 0 0-2-8 81 81 0 0 0-9-25l-1-3 4 4m-42 1 4 7v1l1 1a54 54 0 0 1 4 11c1-1 6 8 6 11v1l-1-3-5-8-1-1 1 1 1 7v2l1 2 2 2v1l1 2-1 4a33 33 0 0 1-6 11v-1a61 61 0 0 0 2-23l-1-5a55 55 0 0 0-6-18h-1l-3-4v-1h2m-5 1 1 1-1-1v-1 1m-131 7v1-1l1-1-1 1m104 0 1 2 2 1 2 3 3 9-1 6v-2l-1-2v-2l-1-1v5l-1 3v2c0 1-1 1-1-1v3l-1-1v-4c0-2 0-2-2-2h-1v-4l-2-7v-5c0-3 1-4 3-3m46 2 4 10 1 2a84 84 0 0 1 4 7v4l-1-2a343 343 0 0 0-2-5l-1-3v5h1v1l2 3 1 2 1 3c0 6-1 13-3 19v1l-1-1v-3a52 52 0 0 0-2-10l-2-8v-4l1 2 1 4c1 1 1 1 1-2a47 47 0 0 0-3-16c1-1-1-4-2-7l-2-3 2 1m-51 4 2 10v5l1 3c2 10 3 25 1 38l-1 2v-3l1-15c0-9-1-15-3-23v-2l-1 1-1 3c0 2-2 2-4 1s-2-1-2 1l-1 1 1 4 2 4a39 39 0 0 1 0-4l2 7 1 1v4a117 117 0 0 0 1 9 665 665 0 0 0 1 7v3l-1-1-9-5-1-2 2-1 1-1-1-1-1-1-1 2-2 1-1-1-1-2a181 181 0 0 1-2-18l1 5c0 3 6 12 10 16l2 2h1v-9l-1-1c-4-8-10-22-8-22v-2l-1-3v-4l-1-4h1v-1l1 1 1 5v-4l1-4h6c1 1 1 0 2-1 1-2 1-2 2-1m-95 2v2l-3 6-1 2-1 2-1 2a1378 1378 0 0 0 6-14m154 4v1l1 1-1-1-2-3v-1l1 1 1 2m-27-2a161 161 0 0 1 9 32c1 2 1 2 1 0v-10l-1-3-4-17-1-1c-2 2-2 2-3 0l-1-1m-51 1h2l2 2 1 5 1 8h-3l-1 1-2 3-1 1c-1-2-3-8-3-13l-1-5 1-1v1l1-1c0-1 1-2 3-1m81 4a74 74 0 0 1 15 22c0 1-7-2-10-5l-2-1v-2a39 39 0 0 0-2-6l-1-3v-1l-1-2-1-5 2 3m-87 1v2l2 7c2 6 2 8 1 7s-4-11-4-15l1-1m43 8a172 172 0 0 1 8 31l1 2h-1l-8-7-1-1 1-2a113 113 0 0 0-2-26l2 3m46-1v1-2 1m-150 1c-4 4-4 25-1 37v2l1-1 2 4 2 4-3-1a22 22 0 0 0 2 7 145 145 0 0 0 6 14 854 854 0 0 0 5 19c-1-3 0-6 3-8l1-1-1-1-1-4-6-17a130 130 0 0 1-4-7l-1-1-1-2-1-5c-2-9-3-10-3-18a46 46 0 0 1 0-15l1-6h-1m148 2h-1v-1l1 1m-73 2 8 17-3-9a311 311 0 0 1-5-8m60 2 1 3-1-4v1m-36 4 1 1v1a483 483 0 0 0 1 9l-1-2v-3l-1-5v-2 1m-125 3v1-1l1-1-1 1m144 0-1 1v-1h1m-13 4v2l3 1s1 0 0 0v-1l-2-3-1-1v2m-79 1v-1 1m166-1-1 1h5l-1-1h-3m4 1v1l1-1h-1m-162 1c1 1-1 7-2 8v-2l2-5v-1m160 0-2 1-3 2-1 1 1 1 1 1 1-1a44 44 0 0 1 4-4h1l-1-1h-1m-11 0v1h2l-1-1h-1m-69 6 1 3v6h-1v-1a100 100 0 0 0 0-8m71-3 1 1 4 5 1 2c0-1-3-6-5-7v-1l-1-1v1m-149 3-7 15 1-1 5-7 1-2v-5m-65 2v1a20 20 0 0 0 0-1m222 4a25 25 0 0 1-1 2 65 65 0 0 1 1 11v10l2 1 3 2v1l1-1 1-1-1-2v-8l1 6v3a81 81 0 0 0-1-20l-2-3-3-3c0 1 0 1 0 0l-1 2m-66 0v4a96 96 0 0 1-1 8v2l1-3 1-12-1 1m68 0 1 1 1 1-1-1-1-1h-1v1l-1 1 1-3 1 1m-51 1v-1 1m-84 1v1-1m-25 2-1 2a67 67 0 0 1-5 5v2l2 6 4-13 1-2v-1l-1 1m163-1 1 9v1-1a204 204 0 0 1-2-9v-1l1 1m-203 1v2l1 6a40 40 0 0 0 4 8h-1l-1-1-1-2-1-1-2-6v-5c0-2 0-2 1-1m1 0c0 1 0 1 0 0-1-1-1-1 0 0m128 2-1 3v1a53 53 0 0 1 1 7l1-12-1 1m-3-1v1-1m-77 1a91 91 0 0 0 1 17v-6l1-1 1-1c-1 0-1 0 0 0l-1-1c-2-1-2-1-1-2h1v-1l1-1h-2v-3h-1v-1m30 0 3 7a59 59 0 0 0 10 10l3 1h-1a42 42 0 0 1-6-7 57 57 0 0 1-9-11m23 2 1 2h1l-2-2m-62 2-3 10-1 1 1 2v2l2-2 2-12v-3l-1 2m-42 1 1 2 1 3-1 1-2-6v-1h1v1m68 0-2 3h1l2-2v-1h-1m-44 2v2l1 2v6c0 2-1 1-2 0v-11h1v1m42-1v1-1c1-1 1-1 0 0m42 0 4 4c2 2 2 2 1 0a91 91 0 0 1-5-4m20 0-1 1 1-1m-21 2 2 1c2 1 2 1 0 0l-2-2v1m-115 0v3l-1 6a187 187 0 0 1-2 14v3h1a370 370 0 0 1 3-26v-1l-1 1m172 1c-2 0-2 3 0 3l1 2h2c1-1 0-1-1-2a12 12 0 0 1-2-3m-12 1h-1v2l1-1h3l-1-1-1-1-1 1m3 0v1h1l1 2c2 2 3 3 4 2l3-1h-1c-1 0-3 0-5-3l-3-1m-24 1v1l1-1h-1m-16 0h1-1m-62 2v1l1-1v-1h-1v1m96-1 1 1c1 0 1 0 0 0v-1h-1m-27 0v2c0 2 0 2 1 0l-1-2m-98 3v1h1l-1-1m30 0-1 1-1 2v4l1-2a174 174 0 0 1 1-5m10 4c4 8 10 15 15 19l7 3-2-1-7-6-2-2c-2-3-5-7-6-11l-1-2-4-2h-1l1 2m-10-1c0 1 0 1 0 0 0 0 0-1 0 0m-11 1-2 3a123 123 0 0 0 2-3m-33 1a157 157 0 0 1-9 29v2l-1 9c1 1 2-3 3-6l1-2v1l-1 1c1 0 0 0 0 0v1l-1 3c-1 3-2 4-1 5l1 7c0 5 1 7 3 10v2l3 8 8 9v-1l-4-10v-1l1 1 1 2 4 9 2 2 3 5c4 4 8 4 12 2a32 32 0 0 0 8-6l1-1 1-1h1l-7 7c-2 2-2 3 0 4l3-1h1l1-1 1-1 2-1a39 39 0 0 1 5-3l4-2 2-4c-1 0-3-3-2-5l3-3h1v-2l-3-1-1-1h-1v2l-1 2c-1 5-3 9-6 12l-3 3 1-2c5-6 8-12 8-19v-3h-1v-1h-5l-2-1-1-1h-5v1l-1 8h-1v-3l-1 2-2 5-1-4-1-2v-7l2 2c2 2 1 2 3-1v-2l-2-1-1-1h-2c-3 0-6-3-6-4v-2l-3-3-2-9h-1l-1-2-1 3a47 47 0 0 0 0 17v3a81 81 0 0 0 2 6c-1-5 0-12 1-17v15c1 5 1 8 4 14l3 5-6-10-3-5-3-3v-1h-1v1l-1 2c-1 1-2-5-3-11a415 415 0 0 0 0-7c1-3 2-1 3 4 0 3 1 3 2 4v-4l-1-2a64 64 0 0 1-5-20c-1-4-1-12 1-19v-8a324 324 0 0 1-2-2m30-1v2l1-2h-1m14 0 1 1v-1h-1m-1 1v2l-1 2v3l1 4 1-4 1-1v-1c-1 0-2-2-1-3l1-1v-1h-2m36 1h1c0 1 0 0 0 0h-1m62 0h-1l1 1h-1 1v1l-1 2v1h1v-5m-107 4-1 2-1 1 1 1 2-5h-1v1m0 3-1 1v1l1 1v2l1-1v-6l-1 2m105-1v1l1 1v-3l-1 1m130-1v2l1-1h1l-2-1m-188 1-1 1 2 1 5 3-2-2-2-1-2-2m191 1-2 1v1h1c1-2 2-2 3 0 1 1-1 3-3 2v1a110 110 0 0 1 1 2h1l2-3 1-2c-1-2-3-3-4-2m-227 1-1 1-1 2v2l1 3v1-1h1l2 3v-2l-1-7-1-2m-41 1-1 3c-1 3-2 11-1 15 1 7 2 13 4 16l1 1v-2l2-9v-10l-1-3-3-11h-1m174 2 1 1c3 4 6 14 5 22-1 6-4 15-7 20l1-23-1-7-1 2a133 133 0 0 1-2 8v35c1 8 3 14 6 19l5 5-2-2c-2-3-4-6-5-11l-1-3c-1-3-2-10-1-15v-5l1-2v-1c7-9 9-25 6-36-1-4-4-8-5-7m0 0c-1 0-1 0 0 0 0 1 0 1 0 0m-115 2 1 1-1-1-1-2 1 2m-86 0v1-2 1m59 0h-1l1 1c1 2 1 2 1-1l-1-1v1m241-1v1l1 2c0 3-2 5-4 3-1-1-1 0-1 1l2 1 4 1v1h1l3-4-2-5-4-1m-250 1v1h1l-1-1m-48 3v4-6 2m3 1v1a30 30 0 0 0 0-1m37 0v1-1m172 5v4l2 3 1 2 1-1 3-4-2 2c-2 2-2 2-3 0v-1l1 1v1l2-2 1-1v-3l-3-1-2-1h-1v1m84 0c1 2 0 5-2 5l-2-2v2l1 1 1 1c2 2 4 2 6 0 1-3-1-7-3-7h-1m9 0v2l1 2-1-4m-272 1v1c0 1 0 0 0 0l1-1h-1m186 1v2-3 1m-96 3v5c-1-1-1 0 0 0l1 1h2v1l3 1h1l-1-1-4-4-1-1v-1l-1-1m-89 2v1h-1l-1 2v1l2 2 1-1v-6l-1 1m253 0v1h1c3 0 2 4-1 4l-2-1c-1-1-1 0-1 1 1 4 7 6 9 2 1-2 0-4-2-6l-1-1h-3m-166 4-3 2v3l3-2c2-2 2-2 1-3h-1m-11 2-2 1v7l-1-1v2l1 1c2 0 3-1 2-3l-1-6h1v-1c1-1 1-1 0 0m170-1h1v3c-1 2-4 2-4-1l-1 2c-1 2 0 4 1 5s3 2 4 1l3-1c2-2 2-4 1-5l-2-3v-1h-3m-169 1v1l3 2v-1l1-1-2-1h-2m4 1 1 2h1-1v-2h-1m132 0h-3l-1 1c-1 3 0 6 3 5l2-1 1-3 1-1h-1l-1-1h-1m-161 1 1 1h1-1l1-1h-2m31 0h1-1m153 0c2 0 1 3-1 4l-2-2-1 1c-1 2 0 5 2 7 3 2 8-2 7-5l-1-2v-2c1 0 1 0 0 0v-1h-4m-17 0-1 1h-1l-2 5c0 4 4 6 7 3v-1c-1-2 0-4 1-6v-2h-4m-163 2 1 1v-1h1v1l2 1h3v-1l-6-2h-1v1m170-1-1 1c-2 1-3 4-1 7l3 2h1l3-2h1l-1-1v-6l-1-1h-4m3 1v2c-1 1-2 0-2-1l2-1m-166 1c0 1 0 2 2 2h1l-1-2h-2m162 1v-1 1m-157 1v1l1 1 1-1v-1h-2c-1-1 0-1 0 0m202 0c-2 1-2 1-1 4 1 2 1 2 2 0v-4h-1m-268 0v1-1m269 0-1 1c-1 1-1 1 0 0l1-1m-289 2v3-1h1c0-1 0 0 0 0v1-4h1l1 2 3 18v1c-3-1-5-7-5-12h-1v-1 1a30 30 0 0 0 0 6l-1-3v-12c1-1 1-1 1 1m90 0v1-1c0-1 0-1 0 0m200 0-1 2v3h1v-5m-286 4v-1 1m3 5 2 11h-1c-2-5-4-16-3-16l1-1v2l1 4m20-4c1 1 0 2-1 2v-1h-3l1 1h2v1l3-1-1-2h-1m258 4c-7 21-21 28-33 17l-3-3-4-5v-2h-1l-1 1 1-1 1-1-1 1h-1l1 3c2 6 4 8 8 12l1 1c-1 0-1 0 0 0v1c3 2 12 3 15 2l12-11 5-9a689 689 0 0 0 0-6m-295 0 1 2v-2l-1-2v2m-1 0a112 112 0 0 0 2 5l-1-3-1-2m46 0c0 2-2 3-3 1l3 2c2 0 2 0 2-2v-1h-2m24 0v1h2l-1-1h-1m228 1-1 3c-2 6-6 14-8 14l-2 2a47 47 0 0 1-5 5l1-1 1-1 7-7a33 33 0 0 0 5-7l3-6v-2l-1-1v1m-275 2c1 2 1 2 1 0l-1-1v1m10 0c2 1 3 3 3 10l-1 4-1-2c0-4-1-7-2-6v-6h1m22 0-2 1c0-1 0 0 0 0l4 1v-2h-2m48 1-1 1-1 1v1l2-2 2 3-1-1-1-1h-1v1l2 3v1l-1 2v2l-1 1-1 1-2-1v7a48 48 0 0 1-2 19l-2 8v5a39 39 0 0 1 2 6l6-7 3-12v-6c2-13 2-25 0-28l-3-4m-65 3v4l-1 3-1 1v-3a39 39 0 0 0 0-6l2-1v2m-35-1v2l3 4c3 5 10 12 15 14l-1-2-7-8-4-4-5-5-1-1m70-1v1h1l1-1h-2m183 1 2 4-1-2-1-1v-1m-156 2h-1 1v-1c1 0 0 0 0 0v1m-38 0c0 3 3 5 6 5l1-1-1-1a276 276 0 0 1-2 1l-1-2-1-1v-1l-1-1h-1v1m4 0c0 1 0 2 2 2v-2h-2m7 1-2 2v1c1 1 4-2 4-3l-1-1-1 1m33 1v4-3h-1v-2l1 1m-54 0c1 0-1 6-3 6v-1l1-1 1-3 1-1m206 0 1 2a270 270 0 0 1-1-2m-188 0a109 109 0 0 0 2 12 48 48 0 0 0 1 3 239 239 0 0 0 3 18v7l2 7 2-2a134 134 0 0 0-10-45m-3 2-1-1 1 1m1 3v1l1-2-1 1m39 1v2c-1 1-1 0-1-1 0-2 0-2 1-1m-37 0v1l-1 2h-2l-1 2-3-1 1 2 4 3 1-1 2-2v-2l-1-4m31 3h2l1 1v-1l1-1v4l-1 1c1 0 1 0 0 0v-1l-3-2v3l-1-3v-1l1-1v1m6 0v2a59 59 0 0 0-1 1v-3h1m-1 7c0 1 0 2 0 0v-2 2m-2-1v2l-1 2-2-2h2l-1-1v-1h2m2 7v3l-1 8-1 1a121 121 0 0 0 1-9l1-5v2m-3-1c0 1 0 2-1 1v-1h1m-26 2c2 6 4 20 4 29 4-3 10 0 10 5h1l2-1 1-1 1-3-1-3-2-4 1-6a309 309 0 0 0 1-8 74 74 0 0 1-18-8m-22 1h-1 3l1-1h-1l-2 1m47 0c2 1 3 3 1 6s-5-1-3-5l2-1m-1 2v3c1 1 2 0 2-2 0-1-1-2-2-1m-75 0-8 6c-7 4-11 8-14 14l-2 7v1l1-1v-1c0-4 5-12 10-16l7-4a46 46 0 0 0 6-5l-2 4-1 2-7 8-4 4-3 5-2 3a29 29 0 0 1-4 4l-1 1-4 6-2 3-2 4-2 1-1 1 1 3 1 6c1 2 0 2 3 2h3l4-1c-7-1-9-8-5-16l1-1h-1l2-4 3-4v-1l4-3a128 128 0 0 0 7-7l7-8 2-3-1 3c-2 3-3 5-8 9l-5 6-1 2v3h1l1-2c0-1 1-2 0 0l-1 15v5h-3l-1-2v-8l-2 7v4l4 7 4 3 2 2 3 2 2 1 3 1a266 266 0 0 1 22 10l3 3c2 5 4 11 4 18v2h-1l-4-1h1l3 1 1 1v2a47 47 0 0 1-2 11l3-11c0-2 0-2 1-1l1 1v-1l-1-1-1-1v-1c0-6-2-14-5-20l2 1v1-1l3-1 1 1a59 59 0 0 1 5 14l-4-13v-2l4 8 1 3v-3l-1-3c0-2 0-2 1-1l1 2 2 7v4l-1 1v1l-1 5c-1 1-1 0-1-1l-1-3-1-2h-2l1 4v3a40 40 0 0 1 0 10h12v-1l2-13v-1l-1-1-1-8-1 7-1 5v-3l-1-2-1-8 1-2c1-1 2-1 1-2l1-1v-3c-2-6-4-9-7-12l-2-1h-1l-1 1h-6 1l3-1a325 325 0 0 1 3-1l-9-5c-7-2-9-4-14-8l-2-2-1 1c1 0 0 0 0 0l-1-1-3-1h-1a83 83 0 0 1-2-9l1 6v3h-2l-2-7-1-1v6c-4-3-5-3-6-2s-1 1-1-1l1-13a61 61 0 0 1 1 4h-1l1 1h1c1 0 2 0 3-2 2-3 3-3 3-1h1l1-1c0 1 0 0 0 0-1-4 0-9 2-12 1-2 1-1 1 1-3 5-3 10-1 16l2 2 1 1v1c-1 1 1 5 2 5v1h1v1l1-1v-9l1 2v9l3 2 2-1v-2h-1v-1l1-7c-1-1-1-1-1 2l-1 5h-2v1-9l1-1 1-4v-5l2 4v2-1l-3-12c-3-7-3-11-3-18v-3h-1l-1-1-1-1-2-2h-1m24 3v3l1-2-1-1m-1 1-1 5c0 4 2 8 3 10l5 9v1-1l-3-11v-1c8 6 10 15 7 23l-1 1v-1h-1l1 1v1h-1l-1-3-2-4c0-5-1-8-5-14-2-4-2-4-1-1a102 102 0 0 1 2 6c1 5 2 11 1 14s-4 8-7 10c-2 1-4 4-4 6l2 1c4 1 5 2 7 1 5-2 8-6 8-12l1-3 1 1c3 2 5 8 3 12l-4 5c-2 0-2 0 0 0s5-3 6-6-1-9-4-13l-1-1v-1c3-6 3-11-1-17l-7-7-2-7v-1l-1-2v-1m132 0v1c3 0 8 6 10 11l-1-1-8-5-1 3 3 1h1l7 7v3l-2 8v1l-1 2-1 2v-7l-1-2v-1l-1-1h-1v2c0 3 0 6-1 3v-1l-3-8c0-2 1-2 3 0l1 1-3-8h-1v2c0 3-1 5-3 8-2 2-2 3-2 10a33 33 0 0 0 9 23v1-1l1-11a704 704 0 0 0 6-13h1v-1h-1l-1-1 1-1 1-6 1 2a19 19 0 0 1-1 9l-1 7c-2 5-3 10-3 17v2-3c-1-5-1-9 1-15v-5h-1a148 148 0 0 0-2 8c-1 6-1 10 1 14l2 5c-1-5 0-10 4-20a41 41 0 0 0 3-19l-4-8-1-3c-2-5-7-11-10-12h-1m-147 1v13-3l1-8 1-2h-2m5 0-1 1h-1l-1 2-1 12v3l1 2 4 13 1 12v1l1-1 4-5c5-11 5-18 0-30a558 558 0 0 1-6-9l-1-1m6 1c-1 0 1 6 3 8v1-1l-1-2v-7h-1l-1 1m54 0v2c3 0 4 2 3 4-1 1-1 1-1-1l-1-2-1 1c-1 2-2 3-2 0l1-2c0-2 0-3 1-2m-25 1-3 11-1 3v1l2 1 1 3 1 1v-21 1m35 0h1-2 1m-2 2c0 2-2 9-4 11a46 46 0 0 1-6 6l-1 3v2l1 1h1l12 5 5 3 5 5h1v7h8l10-3 4-5c1-2 1-16-1-17l-7-4a98 98 0 0 1-23-14h-2l-2-1-1 1m-3 1v1-2 1m0 4c-1 3-1 4-3 5 0 0-1 0 0 0l2-6c1-1 1 0 1 1m-4 6-3 3-1-1h2l3-2h-1m81 5c1 3 2 5 1 7v1-1l-1-2-1-4-1-2 2 1m96-1h1-1s-1 0 0 0m-7 1 1 1a103 103 0 0 1 3 5l2-2 1-2-1-1-6-1m-184 2c2 1 0 4-2 4s-3-1-2-3h-1v4h1l3 2 3-1 1-1c1-2 0-4-2-5h-1m179 1-1 1 1-1c0-1 0-1 0 0m-186 0-1 1c-1 0-2 0-2 2l-1 2v2c-2 8-4 17-7 22a53 53 0 0 1-9 10l4-2c8-5 17-23 17-37h-1m-66 2v7a97 97 0 0 0-2 13v-17c1-4 1-4 2-3m38 1a36 36 0 0 1-3 11v2l2-3 1-10v-1 1m42 1h-1 1c1 0 1-1 0 0m172 1-4 1h-1l-3 6h8l1-3c1-2 3-3 5-1v-1l-2-2h-4m-170 0-1 1v1l1-2c0-1 0-1 0 0m-3 1 1 1v-1l-1-1v1m106 3v1l1 1c2 3 5 7 6 11v1h1v14l-1-1c-1-2-3-6-5-7l-1-3-2-8c-1-2-1-2-2 1l-2 4h-1l1 1-1 2c-1 3-2 8-1 9l1 2c1 2 2 4 5 6h1c-1-1-3-3-3-5l-2-4-1-3 1 1 1 1 3 4 1 1h1l-1-1c-2-4-3-6-3-10l2 4v1l1 1 2 3v-7l6 9-1 2-1 2v1l2-1v-2l1 1v6-4l1 3v1h-2l-1-1-1-1-1-1-2-2-2-1v1l2 1 1 2v1l2 2c-1 0-1 0 0 0 2 4 2 7 0 12v3c2 6 4 13 4 22 0 2 0 2 2 1 5-6 6-11 5-18l-1-1c2 2 3 6 2 10l-3 9c-1 1-1 1 1 1l2-1h1l4-6c7-13 3-25-10-32l-2-1v-1l-2-6v-2l1-3v-10c-1-6-3-10-7-15l-3-1m-25 3v8l1 4c1 4 2 5 5 7l2 1 2 2 2 1h1l-5-8c-4-5-6-9-7-14 0-2 0-2-1-1m-23 3c-1 5-16 18-21 20h-1l10-9-1 1-11 2h-3v10l-3 10c0 5 2 12 5 16l7 1 6 1h1l1-1 3-1h1-1c-2 0-3-1-3-2l3 1c7 0 7 0 3 4-2 1-2 1 0 2l1 1 1-1 8-3 10-7 1-1v1l-1 5-9 10c-2 0-2 0 0 1 4 2 6 5 6 10v1h19v-4c0-10-2-17-6-22-6-8-10-15-11-22l-1-3-5-12c-2-6-3-8-7-9h-2m108 2h-4v2h1c1 0 2 0 1 2v2h1c0-2 2-3 3-2h1c1-2 2-2 3-2h2v-1l1-1h-9m-65 6v1-1c-1 0 0 0 0 0m-163 1h1c0 1 0 0 0 0h-1m233 2-1 1 1-1c1 0 1 0 0 0m-228 0c7 6 8 7 12 8l8 4 2 1 1-1 3-3-13-4a71 71 0 0 1-13-5m225 2a94 94 0 0 0-9 2h1c3 0 3 1 3 3l-1 2c-3 1 0 2 4 1v-1l-1-3c0-2 0-2 3-2h3v-1a74 74 0 0 1 0-2l-3 1m-273 2h-1v1c4 0 9 3 15 7 4 4 7 5 9 4s4-4 2-5l-2-1c0 1-1 3-3 3-1 1-2 0-5-2a74 74 0 0 0-9-5l-6-2m166 1v3l-1 1-2 3-3 3c-3 4-4 4-10 4-6-1-10-3-8-5l4-1h3l7-3c2 0 7-4 8-5h2m48 1a401 401 0 0 1 3 6v1-3l-3-4m53 1v-1 1m-267-1h1-1m21 1v1-1l-1-1 1 1m179 3 1 1 1 1v-1l-2-1m-121 0c-1 1-1 1 1 2 5 4 8 10 8 18l1 2-1 2-2 5 1-1v-1c-1 1-1 0-1-2v-4c0-3 0-3 1-2v-1c-1-7-4-12-9-16l-1-1-1 1-3 2h-1l1 1 7 11 1 2v1-1c0-2 1-2 3-1l1 1v9-4l-1-2v7l1 10a51 51 0 0 1-1 13h9l1-2 4-8 1-2v1a867 867 0 0 0 0 11h2l1-2a41 41 0 0 0 3-12v-12c-1-6-5-11-10-16l-4-2-1-1c2-1 9 4 12 10l2 2a34 34 0 0 1 5 7c3 4 3 9 1 15l-4 5h-1l-1 3-1 2-1 1h1c2 0 7-5 8-9 4-8 2-19-3-22l-1-2c4 2 9 8 10 14v-2a33 33 0 0 0-10-17l-12-8-12-5h-4m184 2v3h3l3-1 3-1h3v-3h-2c0 1-6 3-7 2l-1-2h-2v2m-59-1v2-1a37 37 0 0 1 0-1m-24 3v1c0 1 0 1 0 0v-1m-149 2a91 91 0 0 0-1 12l1 4 3 5v-1c-3-6-4-13-2-19l-1-3v2m241 2-3 1-5 2 4 8c1 1 4 0 7-2h2l2-2-2-2-1-4c0-1-1-2-4-1m-240 4v1-1m189 0h-2 2m5 2c7 5 11 11 11 19 0 5-3 12-6 15l-1 1 1-1c4-5 5-14 3-20-2-5-6-9-11-13l-1-1v-2l1 1 3 1m47-1c1 1 0 2-1 2h-1c-1 1-2 1-2-1-1-1 3-3 4-1m-178 4 1 6 1 4a96 96 0 0 0 1-8l1 10v3l-3-1c-1-1-1-1-1 1l-1 2h-1l1-8a944 944 0 0 1 1-9m-3 2-1 14-1 1v-3l1-8v-6l1 2m83-1v1l-9 4c-6 2-15 2-20 1l-1-1 13-1c5 0 8-1 11-3l6-1m106 4-4 2c-2 1-2 1-4-2l-1 1h-1l2 2 6 4v-2l-1-1 4-2v3h3l1-1 1-1-2-1-1-2h-3m-177 7v2l-1-1v-1l-1-2 1-3v-1l1 2v4m-14-1v-1 1m126 2-1 2c-2 5-2 9-1 12a29 29 0 0 1 2 6v1h4v-2c0-7-1-12-3-17l-1-2" fill="#b91525"/><path d="M0 176a104076 104076 0 0 0 1 175l10-4 4-1a46 46 0 0 1 10-3l4-1 3 1v-1c-4-8-1-19 10-29l2-3c1-7 6-13 15-19l4-2 1-1 1-2 1-2h-1v-6h-1l-2-2c-6-3-17-13-18-17v-8 1l3 4v-1a114 114 0 0 1-3-13v-11l-4-6-1-14v-9l-2 13c-1 15 0 23 5 33l1 3v4a96 96 0 0 1-3-9 54 54 0 0 1-4-11c1 7 4 14 7 20l1 4-4-7c-4-8-6-15-6-24a193 193 0 0 1 0-20v-1l1 1v3a119 119 0 0 0 0 14 95 95 0 0 1 1-16l1 1v-1h-1v-6 2c0 3 0 3-1 2l-1-1 1-5c1-8 2-12 1-13l-4-2h1a9 9 0 0 0 3 1l-1-1-3-3v-1l1 1 3 2v-17l-1-2 1-3 4-7v-1c-1-1-2 2-4 8l-1 2a133 133 0 0 1-3-8l-1-1v-1 1l-2 14 2 8v5c-3-4-4-14-3-25l1-3v-4h-1a51 51 0 0 0 1 30l2 3v1l-2-3-1-2a40 40 0 0 1-2-21l2-9v-3c-1-3 1-11 3-17l4-9 1 1v2l-1 2c-3 5-6 16-4 16v-2c2-4 4-8 4-6l1-1c1-5 1-5 2-4v-1c-1-1 2-7 4-10l-1-1v1-1l1-2a114 114 0 0 1 7-11 67 67 0 0 0-9 13l-4 6v-3l1-2 4-8c0-7 2-10 7-16a123 123 0 0 1 20-18l4-2-6 6-4 3-4 4-5 4-1 1 1-1 2-1 2-1 6-4-1 1 3-2 3-2h1-1l-1 2-2 2c-1 2 0 2 1 0l6-6 1-1-3 1c-2 1-2 1 0-1l2-4h2v-1h-3l2-3 3-2 3-2 7-2 2-1 7-3 1-1 5-6c3-4 7-5 11-2l1 2 1-1 14-4 3-1h4c9 0 16 2 20 4l2 2 3 1 1 1c5 0 10 3 12 6l2 1a57 57 0 0 1 6 1 40 40 0 0 1 22 17 54 54 0 0 1 3 4l10 8c8 7 11 15 12 23l1 3c2 5 2 12 0 18v4l1 1 4 2 3-2 3-1 4-5 1-4-2-6-3-5-1-5a29 29 0 0 1 5-19c1-3 2-3 3-3 2 0 3 1 4 4v2l1 5a63 63 0 0 0 8 22l3 3 5 7 3 4a45 45 0 0 0 6 6c2 2 2 2 1-1v-17l-1-19V99c2-9 6-15 10-17l2-1c1-2 3-2 4-2v32a1144 1144 0 0 0 1 18c0 12 2 21 7 28 1 2 1 2 2 0 4-6 7-13 9-20 0-6 1-8 3-11 2-4 6-9 9-11l3-1 2-1h1v1l1 7-1 3c0 7-2 14-6 23-4 8-5 11-5 18v5l1 1 1 7 2 12 2 9 1 1 3 1 1 1c2 0 5 1 5 3l1 1h1c3 0 5 4 5 8l1 2v2l2 5 2 2c3 2 3 3 3 5l1 2 7 7 9 8a168 168 0 0 0 23 17l8 6 2 2V0H0v176M138 53l-14 2c-2 1-2 1 0 1l13-1h16v-1h-2l-8-1h-5m-33 3-3 4h1l4-3v-1h-2m40 0h-1 2a52 52 0 0 1 14 5v-1l-3-3-2-1h-10m20 3 2 2 2 1h3l-5-3-4-2 2 2m-54 2-5 2c0 1 0 2 1 1h1l2-1 1-2m0 2-1 1 3-2-1-1-1 2m44 1h-3a100 100 0 0 0-32 10c-4 2-16 12-20 17a97 97 0 0 0-27 59 104 104 0 0 0 5 43 147 147 0 0 1-3-31v-7l1-6 1-8a96 96 0 0 1 30-54l8-6 4-3 15-8c1 1 1 1 3-1a79 79 0 0 1 18-5m-38 1c-3 1-4 3-2 2l1-1h1l2-1v-1l-2 1m-2-1-3 1v1l1 1 1-1 2-2h-1m5 2-2 1h3l1-1h-2m2 2-2 1h-2l1 1h3l2-1c1-1-1-2-2-1m-32 0h1-1m-4 0v1h1l2 1h1v-1l-4-1m0 2c1 1 1 2-1 2h-3v1h5l2-1 1-1-3-1h-1m37 0-1 1-2 1 4-2h-1m-11 1v1l2 2-1 1-2 1 1 1h1c2-1 3-2 2-4l-3-2m7 2s-1 0 0 0c0 0 1 0 0 0m-37 2-2 1 1-1h4-3m0 2c-2 0-2 1-1 1 2 0 2 0 0 1l-1 1v2h2l2-2 1-1v-2h-3m28 0v2l2-1-2-1m-22 3-5 4 1-1 3-1-2 1 1 1c2 0 2 0 1 1s-1 1 0 0l1-1v1l1 1 1 1 1 1v-1 1l1 1h3l2-1h-1v-3l-1 1c-1 0-2 0-3-2v-1h-1l-1 1v-4h-2m18 1-1 1c-1-1-1-1-1 1h2a185 185 0 0 1 1-2h-1m-7 1v1c0 2 0 2-1 1s-1 0-1 2c1 2 1 2 2 1l2-1h1v-1l-2-3h-1m191 0-3 2c-3 2-5 4-6 7l-1 3c-2 4-2 8-1 19v16a134 134 0 0 0 2 27v1l-1-1-1-2-5-8c-5-4-9-9-12-14-3-4-6-6-9-5l-4 4a1416 1416 0 0 0-12 13l-1 1h1c2 1 0 2-2 1h-3a142 142 0 0 1-6-1h-1v5l1 1v-1h1l1-2 6 1c6 2 12-1 19-9l5-4h1l1 1a24 24 0 0 0 3 3l5 5 5 6 1 2a34 34 0 0 1 3 12c1 1 0 1-1 3l-4 6 4 2 4 1 7 2c5 1 6 2 9 4a115 115 0 0 0 5 4c3 3 7 5 13 5 2 0 3 1 1 1l-1 1c0 1-7 2-11 0l-3 1-1 1-1 1-1-1-1-2v-1l-8-3-7-2h-6l2 1 2 1 4 4a40 40 0 0 0 4 6l2 4 1 2-1-1v-1l-1 2v3l-1 2 1 3v1c-2-3-3-6-3-11v-3l-1-1c-2-4-9-11-10-11l-1 1c-5 0-7 1-8 3l-4 3-2 1 2 1 3 1h-6l-3 1h-1l1 1v1l-2-2c-2-3-12-8-14-7l1 1h-6l-2 1-2 1-1 1-2-1h-2l-1 1-2 3v4l1 1c2 2 3 2 6 0l6-2h2l2 1 5 4c2 4 3 4 9 5l6 2 3 1 3 2 8 4c5 2 7 3 11 3h6l5-1c1 0 1 0 0 0l-1-1c2-1 2 0 6 1a82 82 0 0 0 8 2 35 35 0 0 0 9 0c1-1 4-5 4-8 2-3 2-6 2-11v-7l-2-12-2-10a65 65 0 0 1-2-8c-1-3-1-10 1-14 0-3 1-4 4-11 5-12 7-19 6-26v-2c0-2-4-1-7 3-5 4-7 9-8 17-1 6-2 8-5 14a41 41 0 0 1-7 11c-1 1-5 3-5 1h1c1-1 2-1 2-3l1-1-1-2c-4-5-7-16-7-27l-1-8a147 147 0 0 1 1-35v-4l-1-1h-1M177 92l4 7v1c-1-1-1-1 0 0l1 2 2 2c1 2 2 2 2 0l1 2 2 3-1-4-2-3c-1-3-4-7-7-9l-1-1-1-1v1M57 94l-4 5 2-2a82 82 0 0 0 2-3m156 1 1 2 2 4 3 4a71 71 0 0 1 4 4c-1-4-3-8-6-11l-4-3m32 3-4 8c-1 6-1 10 1 15a1062 1062 0 0 1 6 9l1-2h-1c-2 1-3-2-3-5s3-5 5-2l3 4h2c2 0 2 0 1-2l-4-8-1-8c-1-7-3-11-6-9m-69 3 3 4h-1l-1-1v-1 1l5 7 1 2v-1c0-3 0-4-2-6l-1-1 2 2s1 0 0 0l-6-7v1m107-1c2 1 4 5 3 7 0 2-2 3-3 4h1-2l-1-1v-1h-1v-1c-2-5-1-9 3-8m-235 4-1 1 1-1m170 1 1 1 1 2v2a118 118 0 0 1 4 9v-2c1-3 0-5-1-6-1-3-5-7-5-6m-2 0a20 20 0 0 0 2 4 20 20 0 0 0-2-4m-41 1 1 1 2 3 2 3 1 1v-1c-1-3-5-8-6-7m-6 1-1 1h-1v1l-1 1v3a101 101 0 0 1 4 9c1-1 1 0 1 1l1 1 1 1c0 2 1 2 2 1s1-2-1-5v-2a62 62 0 0 1-2-6l1 1h1a425 425 0 0 0-5-7m-17 4v11l1 3 1 2v1l1 4c1 1 1 0 1-1h1c2 2 4 1 6-1s2-4 2-5v-1l3 6 1 2v-3l-1-4v-3l-5-10v1l1 3v1l-1-2-1-2v1l1 1-1-1c-1-2-3-2-3-1h-1l-1 1v1-1h-1l-1-1-3-2m-9 3-1 3v5l2 7v2c0-1 0 0 0 0v1l2 1h1v1a91 91 0 0 1 0 4v1l1-1v-1 2l1-1v-2l1-3v-5l1 2 1 1v4l1-1c1-1-2-11-4-14v-2l-1-1-2-2c-2-2-3-2-3-1m-91 4-3 3-2 3-5 11v2s0 1 0 0l4-8v1l-1 2-1 5-1 3h1l1 1 1 1 3-2-1 1 1 5h1v-4h1a148 148 0 0 1 2-5 97 97 0 0 1 6-16l-1 2-1 1v-3l1-1-3 1-1 1v-1l1-2-3 4-1 1v-2l1-1 1-4-1 1m18 2c-3 4-5 9-6 13-1 3-2 3-1 1l2-8-1 3-1 1v-1h-1v-1l1-2c0-2-1-1-2 1l-1 2a59 59 0 0 0-3 12v2c1 1 1 1 2-1l1-2v-1 5l1-1 2-2 5-14a53 53 0 0 0 3-7l1-2-2 2m69 0-1 1-1 1v1l-1-1h-6l-1 4v4l-1-5-1-1v8l1 3v3l3 6v-3l1 1 1-1 2-1c3 1 4 1 4-1l1-3 1-1v-1l-1-5 1 3 1 2-1-13c0-2-2-2-2-1m89 2-1 5v1l1 2v5l1 2v-16l-1-1v2m-123 2-1 6c0 4 0 5-1 1a356 356 0 0 0-2-5v-1 2l-1 5-1 3v5h-1v-1l-1-4c0-1 0-1 0 0-1 0-2-5-1-9v-2a145 145 0 0 0-2 28v1-1 1l1 3 1-2v-11l1 1 3 5h4l1 2 1 1v1-12l1 2v1l1 1v1c1 2 1 2 3 1l5-1v-1l-3-13-1-3-3-1-1-1v4l-3-8v-1 2m14 1-1 1-1 1v-1h-1v1l1 5c0 5 2 12 3 13l1-1 2-3h1l2-1c2 1 2 0 0-7l-1-7-2-1h-4m-48 2c-2 2-4 4-4 6-3 6-4 12-4 16v2-1l4-10 1-4 2-6 1-3m95 0 1 3-1-3m-108 3h-1v-1l-1 1a538 538 0 0 1 0 6v6-1a130 130 0 0 1 2-11m226 0h1l3 3c0 2-4 3-5 1h-2v-3l1-2h1l1 1m-170 0c-1 1 1 10 3 14 2 3 2 3 1-1a24978 24978 0 0 0-4-13m-25 1a77 77 0 0 1-4 12v1l2-1v-1l1 1v1c1 1 1 1-1 4l-1 3 1-1c0-1 0-2 1-1l2-5 2-8-1 1-2 3v1-2l1-5v-4l-1 1m226 5 4 1 3 1-6-1-1-1c0-1 0-1 0 0m5 3h-2 2m-73 1-4 1c-1 0-1 0 0 0l2-1h2m6 9c-2 2-2 3 1 8l2 9 2 8 2 7v3-1c2-4 2-6 1-10v-12l-1-5v-1a41 41 0 0 0-5-8l-2 2m-64 0v1-1l1-1-1 1m-3 3-1 3v2l1-1 1-4c0-3 0-3-1 0m4-1-1 4-3 11-1 3v4h-1 1c2-3 4-6 4-12l1-11v1m-19 0c0 1 0 1 0 0h1-1m142 1 1 1v1c2 3-1 3-3 1l-2-2v-1h4m-63 1-1 1h-1 3v-1l-1-1v1m-89 1c1 0 1 0 0 0 0-1 0-1 0 0m124 0 3 4 2 3c2 2 2 4 0 5h-1 1l-1 1c-2 0-5-1-7-4l-1-1h1l1 1-1-1v-7l3-1m-63 1-1 1a7957 7957 0 0 1-9 27h1a608 608 0 0 0 9-28m7 2a311 311 0 0 0-11 26c2-4 7-9 10-10l5-9 2-6-4-2h-1l-1 1m23 0-1 2-1 1-1 3v2l4 6 1 2v2l2 9v7-1l1-3c2-4 2-7 0-11l-3-11a48 48 0 0 0-1-4l-1-3v-2 1m-66 0-1 1c0 2 1 1 1 0v-1m-98 0v1l-2 5v2l2-8c1 0 0 0 0 0m154 0h-2v1l1 2h1l2-2 1-1h-3m-115 6v3l1 1v-1c2-1 2-1 0-2l-1-1m118 0v1l1 4v-1l1-1v-3h-2m65 1c3 1 4 5 2 7l-3 1h-2l1 1h-2v-1c-1 1-6-5-6-6l1 1 1 1 1 1 1-1c1-4 3-5 6-4m-273 2v3a186 186 0 0 1 1 19l1-6h1v1-2l-1-7a586 586 0 0 1-2-8m127 2-1 1 1 1c1 1 1 1 1-1-1-2 0-2-1-1m26 0a23 23 0 0 1-6 6v5l3-2c2-1 3-5 3-8v-1m-29 2h-1v2h4l-1 1c-2 0-2 0 0 2l2 2v1l-1-1-4-3h-1v2l-1 4-1 2h1l1 1c1 0 2 0 1 1h1l2-2v-3 2l1 2c-1 1 0 1 1 2 2 0 2 1 0 1l-1-1 4 2-1-6-1-6-1-4a178 178 0 0 0-4-1m-7 1v3-4 1m160 0h-1 1m-203 1v-1 1m3-1v1-1m81 0v5l1 1-1-6m-147 2v6l2 6 1 1 1 2 1 1h1l-1-3c-2-4-4-8-4-11 0-1 0-3-1-2m127 1-1 3v1l1-1v-4 1m-39-1-2 1h1l3 2v-3h-2m-75 1-1 5v3l1 2 1 2 1 1-1-2v-4a22 22 0 0 0 0-6l-1-1m71 0-2 1h-1l2 3 5 6 1 2 1-1 1-1v-7l-2-1-3-2h-2m-41 1v1-2 1m21 1 1 5v-1h1l-1-3-1-3v2m77 1-4 2h-1a265 265 0 0 0-3 12h1l10 6 1 1h2v-3c-2-3-2-5-1-8h1l-1-2-4-9-1 1m-36-2v3-3m3 2-1 2v1h1v-5 2m-115-2v6l1 4 2-1h2v-5l-1-2-1-1h-3v-1m13 1v6l4 2h-1v-2l-1-2-2-4s0-1 0 0m-4 1 3 8c0 1 0 1 0 0v-5l-2-2-1-1m41 2v6-3a47 47 0 0 0 0-3m-25-1c-1 1-2 8-1 11l-2-5v-1 4l4 6 1 2v-1l-1-1h1v1-2l-1-10v-2s-1 0 0 0v-2h-1m130 1v1h1l-1-1m-150 1 2 6h1v-2a75 75 0 0 1-2-4l-1-1v1m253-1 1 1h-2v-1h1m-123 1-1 1 1-2v1m-121 1v-1 1m15 1v1c-1 1 0 8 1 10l1-1v-5l-1-5-1-2v2m229-1 1 1-4-1h3m-125 1v1-1c1-1 1-1 0 0m-116 0 1 3h1l-1-2v-1h-1m117 2-2 1v3l-1 4 4-1 1-8-1-1-1 2m-60 0-1 1s0 1 0 0v1c0 2 8 9 14 12h1v-1l-3-4a48 48 0 0 1-9-10l-2 1m35 0c0 2 0 3 1 2l1-3h-1l-1 1m95 0-2 5v1h1l1 1h1v-8l-1 1m-66 0-1 3-1 3v1h1l1-6v-1m-48 0 3 4v-2a90 90 0 0 1-3-2m-40 1 5 28v-2a76 76 0 0 1-3-18l1 3 2 6a378 378 0 0 0-3-15l-1 1v-4l-1 1m10 0 1 2-1 1v1h1v4l-1 1 1 1v7l1 1c0-1 0 0 0 0a63 63 0 0 0 2 11l1 1 5 2c2 1 5 6 7 10l3 3a136 136 0 0 0 18 6l1 1 1-1h2v-6l2-1a25 25 0 0 1 7 1h1l2-1 2-2v-6l-1-3v-1h-1a23 23 0 0 1-15-4l-3-2h1c4 3 9 5 15 4h2v-4c-2 2-9 1-13 0l-3-3-1-1-1 1h-2v-1l-1 1h-1l1-1v-1l-9 2h-1 1l1 2 11 7 1-1-1-1-1-1h1l1 1v1l1-1c1-1 1-1 0 0v1h1c1 1 2 1 0 0h2l3 1 1 1h7l1 3v2l-1-3h-6c-2-1-2-1-2 1l-1 1v1-4l-3-1h-4v1h1-2c-1 1-1 1 0 0h-1l-12-4c-7-5-14-15-15-24l-1-1-4-5h-2m52-1 1 1v-1h-1m28 2-1 3-1 2h1l1-1 1-5-1 1m16 0v1c1 1 2 0 1-1h-1m-59 0v1l1 1v-1c0-2 0-2-1-1m78 2-1 2h1l1-3c0-2 0-1-1 1m-60-1-1 1v1l4-1 2-1-4-1-1 1m8 0 3 2 1 1v-2h-3l-1-1m-11 1-1 2 1-1 1-1h-1m42 1c-1 2 0 3 1 6l1 1h1l-1-2-1-5v-1h-1v1m-60 0 1 1 3 2-2-2c-1-2-1-2-2-1m14 1-2 2c-1 2-1 3 1 1l1-1 1-1c0-2 0-2-1-1m-77 1h-1l1-1v1m126 0v2l1-1-1-1s0-1 0 0m-64 1 2 3h1l1-1-1-1a57 57 0 0 1-3-1m44 0h-3l-5 2h-1c0-1-6 3-8 6-4 4-6 13-3 20l1 2h1l-1-1v-1l-1-1v-4l1 2v3h9l-1 5v7h1v-4l1-1v-1l1-2v-1h1v-1l1-2 1-2h1l1-1v-4a1422 1422 0 0 0 2-20h-2l-6 3-1 1-6 6c-4 5-4 5-4 9l-1 1 1-5v-1l5-8a262 262 0 0 0 7-5l5-1a919 919 0 0 1 3-1m3 1h1l2 1c2 0 2 0 0-1h-3m0 1a790 790 0 0 0-1 18l2-1h3l-1-8c0-1 2-2 4-1h2v8l4 2h1l1 1h1l1 1v-4l-3-7-1-2a19 19 0 0 0-12-7l-1-1v1m20 0c-1 1-2 2-1 3v6l-1 4h-1l1 1 1 8v4-1c1-3 2-4 6-5 6-3 8-4 10-8 1-4 1-5-3-7l-11-5h-1m54 0v2l1-2h-1m-111 2h-1 1c0-1 0-1 0 0m19-1-1 2 1-1 1-1h-1m-22 2v1-1m158 0-3 2v-1a250 250 0 0 0 3-1m-181 1 3 6c1 2 1 2 5 1l6-1v-1h-1c-2 0-8-2-12-5h-1m11 0 3 1-1-1-1-1-1 1m25 0 1 1v-1h-1m5 0-1 1v1c0 2 0 2 1 1v-3m-34 1a26 26 0 0 0 6 3l3 1 1-1-1-1-1-1h-3l-3-1h-2m25 0-4 3 1 3 3 1c5 0 8-6 4-7h-4m49 1v1l1-2-1 1m97 1c-1 8 0 13 1 15l1 1v1l1 1-1-1c-4-4-4-4-3-10a251 251 0 0 0 1-7m-98 1h1-1m-82 1v2-2m212 1v3c1 1 3 0 3-1 1-1-1-3-3-2m-158 1v3l-1 5-3 1c-4 1-4 1-3-1a93 93 0 0 0 4-6l2-2c1-1 1-2 1 0m-14 1h-1l-2 1-1 1h-1l2 1 1-1 2-1a235 235 0 0 1 0-1m-10 1 2 1-2-1m91 0v1c6 9 6 26 0 38l-2 7v18l1-1a751 751 0 0 1 2-8c-2 0-3-3-1-6 1-2 2-3 4-3v-1c0-2 2-5 3-4l1-2 3-9c-2-1-2-5 1-5l1-4-1-2-1-3-2-2 1-1v-3l-1-1a547 547 0 0 1-9-9m-94 0 2 2h2c1 0 1 0 0 0l-3-1-1-1m93 1-1 3v4l1 5c2 6 2 13 1 23l3-8c2-9 1-20-3-26l-1-1m-87 0 1 1 1-1h-2m184 1-3 4c0 1 1 2 3 1 2 0 3-4 1-5h-1m-253 3-3 1-2 1-5 3c-1 2-1 6 1 6l1 3v7l2 7 2 2 3 1 2 1 1 2 2 1h3l2 1 1 1 3 1h3l5 2 6 1-2-6H92c-3 0-5-2-6-5-2-1-5-8-5-9-1-4 2-8 5-7l1-1 1 1h2v1l-1 1-1 1-1 2 1 8c0 2 3 5 4 6h1l4 1h5v-1l1-1v-1l1-1-1-2v-3l-1-1v-2 3l-2 6-1 1h-2l1-1-1-1v-6h-4v-6l2-1h1l3 1h1v-1l-1-1-1-4a193 193 0 0 1-4-10l-2-1c-3-1-9-2-12-1m46 2c2 3 5 4 8 4h2l-1-1h-2a364 364 0 0 0-7-3l-1-1 1 1m-24 0c0-1 0-1 0 0m0 2 3 2 5 1-1-1-1-1h-1a103 103 0 0 1-5-1m36 1h2l1 1-1-1h-2m-53 0c4 1 9 6 8 7v1l-5-2-5-1c-3 0-5 2-6 6v7c0-1 0 0 0 0 0 2-1 2-1 0l-1-3-1-3v-5l1-4 1-1h1c0-2 4-2 8-2m245 1-2 3 3 1c3-2 1-6-1-4m7 1 1 1v10l1 4 1 2 1 3v-1a75 75 0 0 0-2-19h-2m-232 0v1h1l-1-1m3 2 3 2 1 1-1-1a140 140 0 0 1-2-3c-2 0-2 0-1 1m149 0c0 2-4 7-5 7l-1 1v2l-1 1 1 1c1 1 1 3-1 4h-1v2a52 52 0 0 1-3 9c3 1 2 5-1 6v6c-1 2-3 3-5 3h-1l-1 2v2l-2 6v2l2 7 3 4a75 75 0 0 1 46 11 87 87 0 0 0 27 11h11a33 33 0 0 1 23 2 101 101 0 0 0-10-20l-13-16-7 3a29 29 0 0 1-13-3l-3-3-2-2c-4-6-8-17-8-23v-1h-1c-3 0-6-1-7-3l-1-1c-3 0-5-2-6-5l1-4h-2c-4 0-10-4-14-7l-5-4v-1 1m83 0 1 1 1 16v4l1-3v-9l-2-8a86 86 0 0 1-1-1m-238 1 1 3 1 5c0 4 1 10 2 9h2l-2-4a232 232 0 0 1-3-13l-1-1v1m11 0v2l1 1v-1l-1-2m87 0-1 11c-3 5-8 11-13 12l-8 1-2-1-6-2-1-1h-1c-1 1-2 0-3-1h-2a101 101 0 0 0-5 3h-10v1l-2 4 1 4c2 0 3 3 2 4v3l7 2c25 6 47 7 56 4 6-1 9-9 7-16v-1l-1 1h-8l-1-1h1c3 0 7-3 8-6h1l2-9-1-1c-2 2-5 4-11 5l-11 5-6 3a58 58 0 0 1-8 2h-1l-1 1h-3l-1-2 4-1h6l9-3c7-4 8-5 13-6 6-1 7-3 9-8l1-1 1-4v-2h-2v1c-3 2-5 3-10 1l-6-1-3-1m-94 1a216 216 0 0 1 3 14v3l1-1 2 1-1 1h-1a181 181 0 0 0 2 6l1 1 1 1c1 1 1 0 1-1-1-3 3-4 7-1l15 10 1 1 1-1 1-1 1-2 2-3-3-1a60 60 0 0 1-20-10l-1-2a83 83 0 0 0-4-8l-2-2-3-2a234 234 0 0 1-4-3m52 0v1l1 2h1l-1 1v1-5h-1m2 1h1-1c0-1 0-1 0 0m-66 0-2 3v-1l2-2c0-1 1-1 0 0m-47 1a71 71 0 0 0-1 17c0 4 3 12 7 18v1-3l-2-2-2-11-1-7v-2a1371 1371 0 0 0-1-11m22 0h-1v3l2-2v-1h-1m46 1v2h1v-2h-1m208 0-2 2c-1 2 2 3 4 1 2-1 0-4-2-3m-273 1v2a48 48 0 0 1-2 5l2-7m114 2 2 1-2-1h-1 1m-129 1v1-1m238 0 3 1-1-1h-2m-129 0v3l2-2c1-1-1-1-2-1m2 1c0 1 1 2 1 0l1-1-2 1m169 0c-2 0-2 1-2 3 1 1 4 0 4-2 0-1-1-2-2-1m-156 0-6 4-4-1a194 194 0 0 0-3 0l1 6-3 2c-2-1-2 1-1 2h2v-1l7-1h3l3-1 3-2h1l-1-1-1-3v-4h-1m188 0-1 4v1l2-1v-5l-1 1m-312 1c0-1 0 0 0 0m64 0 1 2-1-1a226 226 0 0 1 0-1m129 2-1 7-1 3v4l-1 5c-1 8-4 13-10 16l-11 2h1a2066 2066 0 0 1 11 8l2 3 2 2 2 4v1h1c1 1 8-5 9-7l1-2v-3c-4-8-4-14-4-36v-9l-1 2m77-1c-2 1-3 3-1 4s4-2 3-4h-2m-181 1v1h2v-1l-1-1-1 1m-32 1 2 3v1c-1 1-4-4-3-5l1 1m36-1v2-2m170 0v3l1-2-1-1m-178 1c1 4 8 9 15 10l2 1 2 1h1v-1l1-2 1-1-1-1-1-1-2-1a241 241 0 0 0-18-5m-44 1 1 2 1 1-3-3h1m275 0-5 9a22 22 0 0 0-5 7c-3 7-5 11-9 15v1l1 1 12 16 15 18a91 91 0 0 0 25 16 57 57 0 0 0 15 6v-48l-1-2-10-7a439 439 0 0 1-38-32m-215 2v1h1v-2h-1v1m6-1-1 3h1v-3m-42 2v2-2c0-1 0-1 0 0m-49 0v12l1 2v-6 1l1 1c0 5 2 10 5 11l1 1a67 67 0 0 1-4-22c-1-1-2 0-2 2v1c-1 1-1 1-1-2 0-2 0-2-1-1m288 2-2 5 1 1 1 1v-1l1-2v-3l-1-2v1m-280 1v6l2 11 1 1 1-2v-2l1 1v1l3 3v-2l-2-3-1-3v-3c-1 0-2-1-2-4-2-5-3-7-3-4m49 0-1 1c0 1-1 1 1 6l2 4h2l-1-1-1-2-1-1v-1c-1 0-1-1 1-1l-1-3c0-3 0-3-1-2m-52 2v-1 1m2-1-1 1v1a43 43 0 0 0 4 16v-2a57 57 0 0 1-3-16m18 1c-1 2 0 2 1 1l1-1h-2m217 0v4l1 5 1 1-1-1v-9h-1m47 2a645 645 0 0 0 0 4v1-1l1-2v-4l-1 2m-43 1c1 14 13 26 23 22h1v-1h-1l-2-3a110 110 0 0 0-5-5l-2-2c-4 0-6-3-6-6-1-1-1-2-3-2l-3-3-2-1v1m38 1v1-1m-253 0h1-1m3 1c-1 1 0 2 1 2s2-2 0-3l-1 1m28 1v2l1 1 1 1 1-1-1-1-2-2m32 1h-1l1 1c0 1 1 1 0 0v-1s0-1 0 0m187 0h-2l-3 1h-1c-2 0-2 2-1 3l3-1 1-1 4-2h-1m-238 0 1 2 1-1h1l-1-1h-2m-21 1v6c1-1 2 2 2 6l1 2 1-4c0-7-1-9-2-10h-2m11 3-1 1-1-1-2-2v3l1 4v3l1 3 2-5 1-2v3l1-1 1-7v-1h-2l-1 2m-5-1-2 1v9l1-1 1-3v-2a10 10 0 0 0 0-4m36 2v1l1-1-1-1v1m216 0-7 2h-1l2 3 2 2h1l4-7h-1m-148 0-1 3c-2 0-2-1-2-3h3m-65 7v10c-1 6 0 7 1 8l2 1 16 7 1-7 1-1-2-2-13-18c-2-3-2-4-5-4h-1v6m118-3-1 1 1-4v3m-144 0-1 2a11 11 0 0 0-1 3l3-3v-1c1-2 0-3-1-1m13 8v2h2c2-2 0-4-2-2m41-1-1 1v1c-1-1-2-2-3-1s-2 2-1 3h1v-2s2 0 2 2l1 1c1 0 1 0 0 0l1-1v-4m-3 7 1 1v1l-1 1v-1c-1-1-2 0-1 1 2 1 2 1 3-1v-1h1l-2-1h-1m91 6c0 2-4 7-8 9h1l4-1a95 95 0 0 0 6-1v-2a29 29 0 0 1-3-5m-91 0v1c1 1 1 0 1-1h-1m-2 4c-1 1-1 4 1 5 1 1 2 0 3-2s-2-5-4-3m2 1c1 1 0 4-1 3l-1-1v-1c1-2 2-2 2-1m-50-1v4l1-1 1-2c1 0 1 0 0 0l-2-1m152 4h-2l1 1c2 2 2 2 5 2h1l-4 1-1-1-4-2c-1-1-7 0-12 2l-2 1 1 1 4 6 2 2c3 4 5 8 5 13l1 2 7 5 2 2 5 5a51 51 0 0 1 3 6l3-3h1l2-1 6-4 2-1 1-1h1l-1 1a91 91 0 0 1-1 1h2l2-2-5 5v-1h-1l-1 1v1l-6 13 1 7 1 3 2-1c5-2 18-4 22-3l1-1v-2l1-3c2-11 10-29 15-31l1-1 1-1h-14 1a64 64 0 0 1 10-2h1-1a134 134 0 0 1-4-2c-6-1-12-4-16-7l-13-6c-10-4-19-5-26-5m-182 2-4 2c-6 4-9 7-12 11l-3 6a328 328 0 0 0 19-19m85 1v1h3l-3-2v1m-9 0-1 5c0 2 1 1 1-1l2-1 1 2c0 2 1 2 1 1 1-2 0-3-2-4h-1v-1c0-1 0-2-1-1m85 2c-2 1-2 1 0 1l6 4 1 1v-1l-5-6-2 1m-107 12a110 110 0 0 1-1 13l1-1v-1l2-2 1-1h1l-1-1 1-1v-6l-1 1c-1 1-2-1-3-6a12 12 0 0 0 0-3v8m107-4v1l2 6c-2-3-4-3-4-2a50 50 0 0 0 3 10h1v-6 1l1 1c2 1 3 5 2 7v3l1-3c0-6-2-12-4-15l-2-3m-175 7c-8 7-9 9-12 14-3 4-4 6-4 9v1-1l2-2 2-3 1-3 4-5a25 25 0 0 0 2-3l4-4 2-3 4-4-5 4m56-1v1l2 3c1 0 1 0 0 0l3 2c1-1 0-3-2-4l-2-1-1-1m14 1h-1 1m212 1-8 2a45 45 0 0 0-17 26l1 1-1 8c0 3 0 3 2 1a76 76 0 0 1 54-9 158 158 0 0 0-11-20c-3-5-5-7-8-7-4-2-10-3-12-2m-111 0 1 2 1 3 1 3v1-1c1-2-2-10-3-8m95 0h2-2m-7 2-1 1v1h1l1-1v-2l-1 1m-184 1-1 1c-2 3 3 5 5 1 1-2-1-3-4-2m110 1v2-2m-188 2-2 2c-1 0-6 7-5 8l2-1a19 19 0 0 1 3-4 22 22 0 0 1 4-7l-2 2m2-1c-3 5-5 12-5 18 1 2 1 2 1 0 0-4 1-6 2-6v8l1 2h3v-5l1-15c1-1 0-1 0 0l-1 2h-1l-1 1 2-6-2 1m263 0-2 2h1l1-1h1v-1h-1m-258 2-1 11v8l1-2 1-13-1-6v2m250-1-1 2h2l2-2h-3m-93 0 1 1v-1h-1m1 1h-1 1m-77 1v2c0 1 2 0 2-2h-2m-57 1v8l-1 1-1 3v6-1l1-1 1 1 1-2a78 78 0 0 0 1-6v6l-1 2h1v2-1a29 29 0 0 0 0-15c-1-3-1-4-2-3m133 2c-2 1-2 4-1 4s3-4 2-5l-1 1m-83-1v3c2 0 4-1 3-2l-3-1m-66 1-2 2c-1 2-2 2-3 2h-1l-1-1v-1l-1 9v3l1-1c1-1 2-1 5 1l1 1v-6h1l1 6c1 2 1 3 2 2 1 0 2 0 1-1l-1-8-1-1 1 1 1 5 2 4 3 1h2l-1-1-1-2-6-13c0-2-1-2-1-1 0 2 0 1-1 0 0-2 0-2-1-1m-7 1v1l1 1v-1c-1-2-1-3-1-1m83 0v2h1v-1l1-1h-2m2 1c-1 1 0 2 1 1h1c0 1 3 2 4 1 0-1-1-2-3-2h-3m61 1 1 1-1-1-1-1 1 1m-54 0c-1 1 0 3 1 3h1l1 3 1-1h1v1c1 1 1-1 1-1l-1-1-2-2c0-2-3-3-3-2m-104 1c-6 8-5 15 1 17l1-2c-2-4-2-10-2-14v-1m203 0 3 4c1 0 0-2-2-3l-1-1m-172 2v11l1-2v-7l-1-2m229 1-1 1-1 1h1l1-1v-1m-235 0 1 3 1-1c0-1 0-2-1-1v-1h-1m230 0-1 2h1l1-1-1-1m-88 0v2-2m-55 2c-2 0-1 4 0 5l1 1 1 1h2v-2l-1-1v-1l-1-1c0-1 0-1 0 0h-1l1-1-1-1h-1m95 0 1 5 1-1v-2c0-2-1-3-2-2m-40 0v1l1-1h-1m86 4h-1l-2 6v2l1-1a135 135 0 0 1 2-7m-42 2v1l1 2c0 2 2 3 2 2 1-1 0-2-1-2v-1h-1v-2h-1m-98 1v1h1c1 0 2 0 0-1h-1m-24 2-6 2c1 3 14 0 14-2h-8m166 1v1l1-1-1-1v1m-178 0c-1 1 0 2 1 3 4 1 5-1 2-3h-3m91 1v2l2-1v-1h-2m2 2c-3 1-3 2 1 3v1c-1 1 0 3 2 2v-1l-2-2a127 127 0 0 0-1-3v-1 1m-58-1-1 2c-2 2-2 3-1 4v1l1 1v-2l1-1 1-2h-1v-1h1v-1l-1-1m103 1v3c0 1 1 2 2 1l-1-1v-2l-1-1m-24 2v2l1 2c1 4 5 8 7 10l2 1 1 1-1-1v-1l-2-2-1-2 2 1 1 1-1-1-1-2-4-3-2-4-1-1-1-1m58 2 1 2v-3l-1 1m-268 0c-8 1-16 5-22 10l-1 1v43h56l1-1a52 52 0 0 1 8-5l-1 1 6-3-1 1h-1 2l1-1 1-1v-3l-1-1c-6-2-12-9-14-16l-1-9v-8l-2 1-4 3h-6l-7-7c-3-4-9-6-14-5m17 1 3 2c5 3 7 3 7 0v-1h-2l-2-1-1-1h-6l1 1m192 2 1 3 1 1v-1l-2-3c0-1 0-2 0 0m-90-1-3 3 1 4 1 1v4l1 2 1 1v1-4l1-2-1-4c-2-1-2-1 0-3s2-3-1-3m76 2c-2 1 1 3 3 3l1 1 6 3h1c1 1 2 0 2-1l-2-1-3-2-2-1h-1l-5-2m-161 3v3-4 1m-15 1 1 1-1-1-1-1 1 1m111 0-1 2h2c2-1 0-3-1-2m-92 1c-2 9 0 17 4 23 1 2 2 3 5 4l1 1 1-2-1-2-2-6c0-3-1-7-3-9s-3-5-3-8l-2-2v1m8 3-1 3 1-1 2-1v-1h-2m154 1c-2 2 0 5 5 6 1 1 2 2 2 6l1 2-1 2 1 2 1-2c3-6 2-9-2-11l-2-3c-2-2-4-3-5-2m-153 1-1 1v1c1 1 4 1 3-1v-1h-2m65 2 1 2-1-1v-1m2 1 1 1-1-1v-1 1m16 0v7h1l1-1c1-1 0-3-1-3v-2l-1-1m-82 0c-1 1 1 3 2 2v-2h-2m20 2-1 1-1 1 1 1c2 3 4 7 5 13v1l1 1c2 0 2 1 3 5l1 1v-3l1-2v-1l1-1v-4l-1-6-1-1-1-2c-1-1-1-1-1 1l1 3v4l-1-4c-2-6-4-8-5-8l1 2 3 10c1 5 1 5 0 0l-4-11-2-1m30 1v5a284 284 0 0 0 0 12v1c1 0 2-1 2-3v-2l1 1c3 1 3 1 3-2l-1-10-1 7c-1 1-1 0-1-2l-1-7h-2m-11 0v3l2 6v-5 1l1 4-1-8-2-1m9 0v7a75 75 0 0 1-1 9v1l1-1v-16m120 1-1 4c1 1 4-3 3-4h-2m-125 1v6c0 3 0 3 1 1v-7h-1m41 2-1 1h1l1-2-1 1m-47 0h-1v1l-2 2-1 1a81 81 0 0 1 2 14l1-6 1-6a476 476 0 0 0 1-4l-1-2m-33 2v4h2v-3h-1v-1h-1m56 1-1 3 1 3 1 1v-3l-1-4v-1 1m-13 4v-1 1m119-1-1 2v2c0 2 1 1 2-1s0-3-1-3m-175 1c2 4 6 7 9 8h1l-1-1a28 28 0 0 1-9-7m295 0a218 218 0 0 0-18 3 63 63 0 0 1-17-1l-2 1c-2 2-7 2-12 1h-3l-20 1h-1l1 1 3 4 6 8 4 5h102v-20l-6-1a536 536 0 0 0-37-2m-127 2-1 3 3 2-1 1v3h1v-5l-2-2 1-1c0-1 0-2-1-1m-66 1v3h3v-1l-2-1-1-1m-88 1v2l1-1c1 0 0 0 0 0l-1-1m92 2 2 1-2-2h-1l1 1m-91 0v1l1-1h-1m95 1h1-1m3 0c0 1 1 2 2 1h1l-3-1m91 0-1 1v2c0 1 5 2 7 1 3-2 2-3-2-3a295 295 0 0 1-4-1m-2 1v1c0 1 0 0 0 0v-1m-83 1c-2 1 0 2 2 1h1v1l1-2h-4m4 0v3l1 1 2 1v-3c-1-2-2-2-3-2m93 1h-1c-2 0-2 0 0 0l1 1 1-1h-1m-201 0v2l1 2 1-2c0-2-1-3-2-2m72 3 1 1-1 2v1c1 1 2-1 2-2h1c1 0 2-1 1-2h-4m42 0h-1l-1 1v1h2l1 2 1-1h1l-1 1v1c2 1 2-2 1-4l-3-1m-113 2v1l1 1v-1l-1-2v1m80 0v2c6 3 19 5 20 4s0-1-7-4l-5-1-4-1h-4m-80 2-1 2v1h1c1 1 1 0 1-1v-1l-1-1m115 3c-1 1 0 3 1 3h1v-1c0-2-1-3-2-2" fill="#f4b5c5"/><path d="m102 53-1 1 1-1v-1 1m11 0v1-1l-1-1 1 1m26 0s-1 0 0 0m12 2h1c1 0 0 0 0 0h-1m-20 0h1-1m-20 8-1 1 1-1v-1 1m0 0v1-1c1 0 1 0 0 0m2 3v1-1h1-1m-42 7v1l1-1h-1m-1 3-1 2 2-2 1-1-2 1m45-1v1-1m-46 4v2-1l1-1v-1l-1 1m-1 6h-1 1v-1 1m-2 0h-1 1v-1 1m219 0-1 1 1-1h1-1m9 2-1 3v1l1-1v-5 2M87 86h-1 1v-1 1m-32 1-1 1 1-1 1-1-1 1m-2 2 1-1-1 1m163 3v1-1h-1 1m75 6v-1 1m2 1v-1 1M53 99l1-1-1 1m227 1-1 6c1 2 1 3 4 3l2 1h-3l-1-1v1c1 1 3 1 4-1 3-4-2-11-5-9m-2 3v1-1c0-1 0-1 0 0m13 0c0-1 0 0 0 0m-244 2h1-1m133 0h1c0 1 0 1 0 0h-1m-1 1c1 0 0 0 0 0 0-1 0-1 0 0m114 1v1-2 1m-2 5v1a47 47 0 0 0 0-1m-12-2v-1 1m-96 2v-1 1m146 1h1c0 1 0 1 0 0h-1m-1 2 2 1v2-3h-2m-186 2c0-1 0 0 0 0m179 2-1 1 1-1h1-1m-74 1-2 1c-1 1 0 6 1 7h2l2-1 1-1h1-5c-1 0-1 0 0 0l2-1h3v1-2c-1-4-3-5-5-4m-191 1h-1 1v-1 1m122 4 1 4 4 17v1c1-3 0-12-1-15l-4-7m71 3h-1l1 1v-1h1-1m-18 0v1-1m52 1h-1l-1 2 3 1c2 0 3 0 2 1h-2l-3-1 1 1h4l-3 1 1 1 4-2-3-3h-1l-1-1m-121 2 1-1-1 1m40 0 1 1v2a125 125 0 0 0 2 6l1 3 1-1h4l-1-2c-3-5-8-10-8-9m-98 1v1-2 1m52-1v1-1m122 2v-1 1m-132 0h1-1m133 1v1-1c0-1 0 0 0 0m-81 0v2l1 1-1-3m-1 1v6l-1 5v1l2-1 2-1 1-1v-4l-2-2-1-2-1-1m61 1-5 4c-7 8-13 11-19 9l-6-1-1 2h-1v2l2 1 6 3c4 2 13-1 16-6a62 62 0 0 0 4-5l4-6 1-1c1 1 0 2-1 4l-1 1 4-2 1-1-1-2-1-2h-2m-169 3s0 1 0 0m98 3a78 78 0 0 1 0 10l-1 3 3-4v-4l-1-5v-2c-1-2-1-2-1 2m76-1-6 3-1 1 1 2 1 2 2 3c2 5 6 9 9 10l1 1h2l3-1v1l1-1c0 1-1 2-3 2s-2 0-1 1h2l1 1h-1c-3 1-11-5-14-10v-1 1l1 5v12c1 4 1 6-1 10a16 16 0 0 0 0 2l-4 9s-1 0 0 0l-1 1s0 1 0 0v1h1l2 1h1l2-1 4-3 2-2 6-1c1-1 2-1 0-1l-3-3h2l1 1h1l3 1h4l7 2 8 3v1c0 2 1 2 2 2l1-1v1h-1 1l1-1 3-1 7 1 4-1 1-1c2 0 1-1-1-1-6 0-10-2-13-5l-2-1-3-3c-3-2-4-3-9-4l-7-2-4-1-4-2 4-6c1-2 2-2 1-3v-3l-3-9-1-2-10-10m16 1v-1 1m-78 1 1 1v-1l-1-1v1m8 0h-2l-1 1v1h1c0-2 0-1 1 1h1l3-1h1l-1-1v-1h-3m15 0c-1 1-2 1 6 1a59 59 0 0 1 4 1c-1-2-9-3-10-2m-66 1a92 92 0 0 1 1 8l2 2s1 1 0 0v-1a59 59 0 0 0-3-9m114 1h1v1-1h-1m-179 3v1a36 36 0 0 0 0-1m3-2c0-1 0 0 0 0m106 0-1 1v5l-1 1 1-2 2-1 1-1-1-2-1-1m74-1v1h1-1v-1m-66 1-1 1h-1l2 1 1 1h1l2-3h-4m-4 1h1v-1l-1 1m-7 0-2 2v3l2 4 1-5v-4h-1m9 2v1h1l1-1-1-1h-1v1m-112 0s0 1 0 0m-33 2v1-1c0-1 0 0 0 0m140 0c-3 3-4 6-3 7l1-1 2-3 1-1v-1c0-2 0-2-1-1m48 0h1-1m-39 2-3 3-1 1h1l1 3 1 1 1-2 4-3v-4l-1-1-3 2m99-1-1 1h2l1 1 1-1c0-1-2-2-3-1m-217 0v1-1m94 1-1 2-1 2v2l-1-1v-1 1l-1 6c-1 9-2 17-4 22l-1 1v-1 2l-1 3c-1 0 0 0 0 0h1l1-2 1-2 1-2v2l-1 4 2-9a265 265 0 0 1 2-3l4-3 1-1 1 2 4 10 1-1v-2a71 71 0 0 1-2-6l-1-13 1-1v6l1-1 1-2v-3l-1-7-1-1v1l-3 8-1 2v2c0 5-2 8-5 9-1 1-1 1-1-2v-2c0 1 0 0 0 0l1-1 1-7 3-11c0-3 0-3-1-2m121-1v1c0 2 5 4 6 3l-1-2h-1c-1 0-1 0 0 0v1l-4-3m-119 2v-1 1m93 0c-1 1-2 5-1 8v1h1c4 4 8 4 8 1l-1-3-2-3c-2-3-3-4-5-4m-158 3v2l2 8v1l1-2c1 0 1-1 0 0v1l-1-1v-3l1 1h1a67 67 0 0 1-4-7m29 1 1 1v-1c0-1-1-2-1 0m90-1h1-1m-85 2v3c-1 3-1 2 1 5l3 2 1-1v-1a24 24 0 0 0-1-6v-1l-1-2h-2a262 262 0 0 0-1 1m-5 1a107 107 0 0 1-2 15l1-1 1-3h1a45 45 0 0 0 0-11h-1m45 1v2-2c0-1 0-1 0 0m-173 2v-1 1m177 1-3 9v2h1l4-1c1-2 2-4 1-5v-4l-1 1-2 3v-1l1-2v-2h-1 1v-1c-1-1-1-1-1 1m79 0 1 1-1-1-1-1 1 1m25 0c-2 0-3 1-3 4l-1 1v1h1v-1 1l2 1 2 1h2l-3-1c-1-1 0-1 2-1l3 1c3-3-1-9-5-7m12 1v1-2 1m-291 1s0 1 0 0v-1 1m1 0v-1 1m129 0a76 76 0 0 1-1 7l1-1h2v-2l2-1-2-2-2-2v1m-48 1a27 27 0 0 0 1 5c0-1 0 0 0 0l1 5a295 295 0 0 1 0-1v-2l1 3 1 2h1v-1l-1-2-1-3h-1v-1l-1-3-1-2m86 1-1 2v4l1 2 1-8-1-1v1m-23 0a73 73 0 0 0 0 9 53 53 0 0 0-1 5l1-1v-1l1-4 1-2-1-4c0-3 0-3-1-2m-42 1-2 1 4 3 1 1 1-1 2-1-3-2-2-2-1 1m-103 0v-1 1m-2 0v-1 1m-1 1s0 1 0 0m103 1v2l1 1 1 1 2-1 1-1-3-1c-2-2-1-2-2-1m-14 0v1-1m191 1h1-1m-110 0c-1 1 1 7 1 6l-1-5v-1m33 1c-3 1-8 6-10 10v1h-1c1 0 0 0 0 0v2l-1 1 1 3 4 2a530 530 0 0 0 7-19m-30 1v2-1c0-2 0-2-1-1v6l2 3h3l1 1h1l1-3h1-2l-3-1h-1l-2-6v-2 2m-40 0c-2 1-2 0-2 2v4l1 2h1-1l1-2 1-6h-1m-20 0v1-1m-90 1s0 1 0 0v-1 1m14 0v1-1c0-1 0 0 0 0m29 0c0-1 0 0 0 0m0 0v2-2m62 1h-1 1s0-1 0 0m-54 2h-1 2-1m170 1 10 2c10 1 11 1 15 5l2 2-1-1a124 124 0 0 0-7-4 40 40 0 0 0-7-1h-2a74 74 0 0 1-6-1l-7-2h3m-130 1v-1 1m-39 0v2l1 1v1l2 1 4 5 1 1c1 6 5 15 9 19 5 5 12 8 17 9 3 0 2 0 0-1a12 12 0 0 1-8-5h-1a215 215 0 0 0-8-8v-1l-1 1c1 0 1 0 0 0v-2l-1-1-7-13-1-2a58 58 0 0 1-6-7h-1m76 0-1 1-1 1v1l-2 1-1 6v1c-1 0-1 0 0 0v1h1l1-4v-3l2-1 1-3v-1m-85 2s0 1 0 0v-1 1m0 0v-1 1m25 0-2 3c0 1 0 0 0 0l1-1 2-1 1 2 8 8 3 3c1-1 0-2-3-5-3-2-6-5-8-9h-2m-49 0s0 1 0 0v-1 1m140 0-2 2v1l1 1c2 2 4 3 3 1l-1-4v-1h-1m11 0v1-2 1m-153 1v1-1m-2 1v-1 1m96-1v1h3-2c1-1 0-1-1-1m-123 1v1-1c0-1 0 0 0 0m227 1v2l-5 6 3-4 1-2 1-3v1m18-1 5 2 5 3 4 2 3 1-7-2-5-3a64 64 0 0 1-7-3h2m-250 1c0-1 0-1 0 0l-1-1 1 1m123 0-1 2 1-1h2l-1-1h-1m-89 1v-1 1m5 0v-1 1m31 0c0-1 0-1 0 0m50 0v1-1m26 2v1-2 1m36-1 1 1v-1l-1-1v1m-71 2v2l1-2c0-3 0-3-1 0m12-2-1 3 2-2v-1h-1m-21 1v1h1l-1-1-1-1 1 1m69 0a44 44 0 0 0 6 5l8 3 5 3 1-1 1-2h1l-1-1h-2a148 148 0 0 0-6-3l-2-2h-2v1c1 2-1 3-4 1l-2-1-2-2-2-2 1 1m-164 0v1-1m262 1 3 1c3 2 6 4 7 3h4l-4 1c-4 0-4-1-8-3a36 36 0 0 0-4-3l2 1m-132 0v1-1m30 1v1l1 1-1 1 1 2v1l1-1 1-1h1l11 5c4 2 4 3 3 7-2 4-4 5-10 8-4 1-5 2-6 5v1-2 2l-5 9v1c0 1-5 4-9 5a29 29 0 0 1-16 0l-4-2-1-1-4-2h-1v5l1 3 1 1h-1l-3 2-3 1h-3c-7 0-7 0-7 2v1l-1-1h1c1 2 0 3-1 4v3h1c0-1 0-1 0 0l1 3c2 1 2 3 2 3h1c1-1 0-4-2-4l-1-4 2-4v-1h10a36 36 0 0 0 5-3h2c1 1 2 2 3 1h1l1 1 6 2 2 1 8-1c5-1 10-7 13-12l1-11 3 1 6 1c5 2 7 1 10-1v-1h2v3l-1 3v4l1 2v4l-2 5c0-1 0 0 0 0 1 1 0 3-1 4-2 2-3 2-7 2-2 0-2 1-1 1h8l1-1v1c1 3 0 9-2 12-2 4-5 5-16 5-14 1-27-1-46-5l-6-1v1l1 2 1 1 8 1c12 3 23 4 34 4h11a40 40 0 0 0 12-3l1-1 5-6v-1l2-15c0-7 1-9 4-17l3-11 1-8-5 1c-2 2-6 2-7 1v-1 1l-1 4v1l-1-1v-1h-1a178 178 0 0 1-2 6l-1-3c0-3 1-6 4-8l2-4v-1l-1-4-5-2c-5 0-10-3-14-7l-1-1-1 1m-64 0 2 3 2 1-1 1v1l1-2 1-2h-1l-3-3-1 1m82 0 4 3-1-1-2-2h-1m-69 1-1 1-1 1 1 1 1-2v-1m62 0h-1l1 1c1 1 2 0 1-1h-1m92 1 2 1-6-2 4 1m-59-1-2 1 1 1a42 42 0 0 1 11 6l-1-2c-1-2-2-3-5-4l-4-2m-81 2 1 3h2l1-1 1-1 1-1h-3a93 93 0 0 1-3 0m-68 0s0 1 0 0m82 0s0 1 0 0m62 1h2-2m-96 1-1 1v2h1v-1s1 0 0 0l1-1c0-2 0-2-1-1m12 0-2 1v1l3 1h1l1 1v-1c0-2-1-2-2-3h-1m-9 0v1h-1 1l1-1h-1m-27 0 1 2 1 1c6 4 12 6 14 5h-1l-1-1h-1l-5-3-2-1-2-1-3-1-1-1m80 1 1 1-1-1m-67 1 1 1v1h1l-1-1-1-1m67 1v2h1l-1-3v1m-49 0-1 1h1l-1 1c-2 0-4 2-3 3h1l2 2-1-3 4-3 2-1h-4m-11 0h1-1m149 1 1 2-1-1v-1m-32 0 1 1 5-1h-6m-92 0-1 1 1-1m32 0v1l1 2 1-1c1 0 1 0 0 0l-1-1-1-1m-55 1v1l1-1h-1m17 0v1-2 1m6 0 1-1-1 1m123 0v4c1-1 1 1 1 3l1 2v2l1-2v-5l-2-2-1-2m-86 1v1-1m-163 1v1-2 1m287 0v5c0 5 0 8-2 11 0 3-3 7-4 8h-1a35 35 0 0 1-10-1l-6-1c-4-1-4-2-6-1l1 1c1 0 1 0 0 0l-5 1h-6c-4 0-6-1-11-3l-8-4-3-2-3-1-6-2c-6-1-7-1-9-5l-5-4-2-1h-2l-6 2c-3 2-5 2-6 0h-1v1h1c1 2 3 2 7 0 5-2 9-2 12 0h-2l-1 1h-1 1l3 4c3 4 7 6 11 5l6 1 2 1h-4l1 1 1 1 1 1a30 30 0 0 0 7 6 39 39 0 0 0 6 3h3l4 1h3l6-1 4-1-1 1h-1l-2 2h1l4 1h3-1l-1-1h2l2 1h2l1 1 1-1 5-2h-1l-3-2-2-1-4-3h1a35 35 0 0 0 13 5h1l1-1h5v-1c1-2 4-5 6-5h1v-1c0-2 2-5 3-5h1v-1l-1-2-5-12h-1m-124 0v1h-1v2h-1l1 1h1v-4m-9 1v1-1m-151 0s0 1 0 0m-3 2v-1 1m253 0 1 1v-1h-1c1-1 1-1 0 0v-1 1m-153 1-1 1h-1 1v1h2l1-1h-1v-1h-1m54 1v1-2 1m31 0v1l1-1h-1m14 1v1l1-1-1-1v1m-97 0 1 1v-1h-1m83 0v1-1m-31 2v-1 1m-153 0v1-1c-1-1-1-1 0 0m258 1v1-1m-111 0h-2c-3 0-2 1 2 1h1v-1h-1m6 0v5h-12v1l-1 3a127 127 0 0 1-1 13l-8-2 5 1a206 206 0 0 0 1-14h-1l-1 2a30 30 0 0 1-1 3h-1v1l-1 2v1l-1 1v2c-1 1 1 3 2 3h1c0 1 3 2 7 1h4c4 0 10-3 13-8h-9c-1-2 0-3 7-4l5-1 1-6-3-2-1-1h-1l-4-1m-33 1s0 1 0 0v-1 1m-2 1v1-1c0-1 0 0 0 0m2 1v-1 1m-122 0v-1 1m207-1 3 3v-1l-2-1-1-1m-42 2v1-2 1m-99 1 1 1v-1l-1-1v1m-62 1v-1 1m101-1 1 1 4 1-1-1-2-1h-2m-105 1v-1 1m305 0v3l1 1a20 20 0 0 0-1-4m-130 0-2 2-5 3-1-1 3-3 5-1m88 1h1-1l-1-1 1 1m-263 0v1-1m111 0c-1 1 2 1 6 1h1l1-1h-8m193 0-1 1h2-1v-1m-230 0v1l2 2 1 1h1l-3-4h-1m-29 0-3 1-1 1 1 5v2c-1 0-2-2-2-5v-1 1l-1 2 1 1 1 4v1l-2-5v-1 4l1 1c-1 1 1 3 1 4l1 1v-6c1-4 3-6 6-6l5 1 4 2v-1l-1-1c-1-3-6-5-11-5m22 1a20 20 0 0 1 0 2 148 148 0 0 1 4 14l2 4c1 1 1 1 1-2l-1-3v-2a419 419 0 0 1-1-8 10 10 0 0 0 3 1l2 2 1 1 2 2a862 862 0 0 0 5 11l16 8 7 1-1-1-2-2-3-1-2-1c-6-1-13-6-15-9 0-2 0-2-2-2l-2-4-3-4-1-2-2-1c-2-2-2-2-1 0v2l-3-5h-1v-1h-1a236 236 0 0 1-2 0m34 0h1c1 0 1 0 0 0h-1m-103 1v1-1c0-1 0 0 0 0m133 0h1-1m-3 0h1-1m-128 1v1-1c0-1 0 0 0 0m1 1s0 1 0 0m-1 1v1-1c0-1 0-1 0 0m206 0s0 1 0 0m-127 1v2l1 1v-1l-1-2v-1 1m47 0v1h1-1v-1m174 1v1l1-2-1 1m-248 1h1-1m3 0-3 1-3 3 1 7c2 6 4 8 7 9v-1c-1-1-4-4-4-6l-1-8 1-2 1-1 1-1v-1m-55 1s0 1 0 0m127 1h1l-1-1v1m-46 0 1 3c1 2 1 2 3 2l1 1v-2h-1l-1-2h-1l-1-2h-1m-81 1v1-1c0-1 0-1 0 0m38 0c0-1 0 0 0 0m23 0h1-1m67 0h1-1m-69 0-1 2v4-2h-1c0 2 1 3 4 3h1v5l1 2 2-2a177 177 0 0 0 0-3l-1-5v-1l-3-2v-1h-2m144 2s0 1 0 0v-1 1m-191-1v-1 1m249 1 2 1-5-2 3 1m-261 0s0 1 0 0c0 0 1 0 0 0m61 0-1 3v-3h1m217 1v-1 1m-221 0c0-1 0 0 0 0m218 0h1c0 1 0 0 0 0 1 0 0 0 0 0l-1-1h-1l1 1m-263 0v1-1m295 1c0 1 0 1 0 0v-1 1m-271-1v4c1 4 1 5 3 7l1 1v-1h1v-1l-2-2a66 66 0 0 0-2-8h-1m-36 0v1h1v-1h-1m272 1v1l-1-1h1m-184 0v1h1v-1h-1m-48 1h1v2l1-1-1-1h-1m104-1c2 0 2 1 1 1l-3-1h2m50 1c0-1 0 0 0 0m48 0c0-1 0 0 0 0m75 0 1 1-1-1m-13 2v3l1-1v-2l-1-2v2m-62 0v-1 1m23 0v-1 1m-256 1v-1 1m298 0v-1 1m-47 0v-1 1m-159 1v1-1m205 0v1-1m-295 1v-1 1m184 0s0 1 0 0v-1 1m110 0c-1 1-1 1 0 0v-1 1m-285 1v1-1m-6 1v-1 1m60 0v3l2 3v-2a440 440 0 0 1-2-4m-64 0 1 1v-1h-1m61 1h1-1m-3 1v1l-1 1v1l2-1v-2c0-1 0-2-1 0m123 0v-1 1m-177 1v1-1c0-1 0 0 0 0m180 0v1-1m-172 1v-1 1m21 0-2 1c0-1 0-1 0 0h2v1l1-1v-1h-1m38 0c-1 1-2 2-1 3v2-1c1-5 3-5 7 0a54 54 0 0 0 14 11l2 1v-3l-2-1-14-10c-2-2-4-3-6-2m174 0c1 0 0 0 0 0m5 1a46 46 0 0 0 2 8l-2-8c0-1 0-1 0 0m2 0v1-1m-3 4a39 39 0 0 0 1 4v2h1c0-1 0 0 0 0l-1 1 1-1v-1l-1-8c-1-1-1 0-1 3m-212-3v1h2l-1-1h-1m-5 0h1-1m18 0h2-2m-42 1v1-1m176 1v1-2 1m-138 1v1h2v-1h-1l-1-1v1m26 1v1c1 3 1 7-2 9l-1 1v2l2 8 1 4v2l1-1v-20h1c3 0 3 1 5 4 7 11 14 21 15 19v-14l-1-1-6-4c-3-2-3-1 1 2l3 4-10-9c-5-5-8-8-9-7m-74 0v1-1m56 0 1 2 6 2h2v-1l-1-1h-1l-5-1-2-1m45 1h1v1-1h-1m-32 1h-2v2h2v-2c0-1-1-1 0 0m1 3v1-1c0-1 0-1 0 0m28 1c-2 1-2 2-1 5l1 4h1l1-1 1-1v-2l1-2v-1c1-1-2-3-2-3h-1l-1 1m-62 0v1-1m150 2s0 1 0 0v-1 1m6 0v1c0 2 0 2 1 0 0-2 0-2-1-1m85 0a75 75 0 0 1-4 0l4 5 2 3 1 1 1-1 2-2 1-2-2-2-3-3-2 1m16 1v1-1l1-1-1 1m-230-1 1 2-1-2m-21 1v1-1c0-1 0 0 0 0m44 2a76 76 0 0 0 6 7l-9-9 3 2m-22-1h1v-1c-1-1-1 0-1 1m127 2s0 1 0 0v-1 1m-153 0v-1 1m159 0h1-1s-1 0 0 0m65 2h1-1l-1-1 1 1m-255 2 1 1 1 1-1-1-1-1m100 0a582 582 0 0 1-1 24l2 1a118 118 0 0 0 27 0l2-1c6-3 9-6 10-10v-8h-2a50 50 0 0 1-9 1l-2 1h-12 2l12-2a1182 1182 0 0 1-1-2l-4-1a420 420 0 0 1-24-3m-17 2 4 3v1l-1-1-5-5 2 2m196 1-2 4 10 12c8 13 10 16 12 22 4 8 8 17 11 20 7 11 17 17 31 20l5 1 2 1h-2l-9-1 3 1 2 1h1-1l-7-3h-2a50 50 0 0 1-19-12l-5-5a32 32 0 0 0 3 7l-3-1h-11c-15 0-27 3-40 10-2 2-2 2-2-1l1-8-1-1a46 46 0 0 0-1 17l5 10a44 44 0 0 0 14 13h16l12-1c8-2 8-2 20-1a83 83 0 0 1 7 0 360 360 0 0 1 20 1h1v-50l-1-1c-4-1-10-3-14-6l-4-2a91 91 0 0 1-36-32 201 201 0 0 0-13-17l-3 2m-26 2v1-1h-1 1m-86 8v1h1-1v-1m-153 1s0 1 0 0m165 4v1-1l1-1-1 1m18 1h1-1m-2 2h1-1m3 0h1-1m-9 1h1-1m10 2c1 0 0 0 0 0-1 0-1 0 0 0m-22 1 1 1v-1h-1m-110 4v1-3 2m47-2c1 0 0 0 0 0s-1 0 0 0m-106 3-1 1 1-1v-1 1m-7 0-1 1 1-1m3 3-1 2 1-1 1-2-1 1m179 1h1-1v-1 1m-8 2c1 0 0 0 0 0l-1-1 1 1m-175 1h1v-1l-1 1m2 1h1v-1l-1 1m69 1v-1 1m211 0h2-2m-283 2-2 2 2-2 1-1-1 1m68 0v1-2 1m-71 0-1 1 1-1 1-1-1 1m270-1h1-1m-266 2-2 1 2-1 1-2-1 2m267 0-1 1h1l2 1 1-1 1-1h-4m-86 3v3h1l1-2-1-2c-2-1-2-1-1 1m71-2h1-1m-186 2c0-1 0 0 0 0m192 0-1 2v1h-1l-1 1v1l2-1h2l2-3-1-1h-2m-188 1 1-1-1 1m-75 1-1 1 1-1 1-1-1 1m1 0-1 2 1-1 1-2h1-1l-1 1m187 1h1v-1 1h-1m-191 0 1-1-1 1m197 0v-1 1m79 0-1 1 1-1 2-1-2 1m-7 0-1 1 1 2 1 1h2l-1-3c-1-2-1-2-2-1m-176 2h1-1m-9 3v2c2 2 5 0 4-2l-1 2c-2 0-3-1-2-2h-1m183 2-1 2c-1 3-2 3-4 3h-2v1l2 1c4 0 4 0 5-3l2-3-1-1h-1m-232 2v1-2 1m123-1v1h1l-1-1c0-1-1-1 0 0m52 3v1-1l-1-1 1 1m18 1-1 1h1l1-1v-1l-1 1m-1 0a44 44 0 0 0-8 4l-2 1-1 2h-1l1 2 1 3c1 1 0 1 1-1l2-2v-1l1-1a38 38 0 0 1 7-8l-1 1m31 0h-2v1c-1 1-1 1 1 1a16 16 0 0 1 1 0l2-2h-2m-236 1s0 1 0 0v-1 1m-21 0v1-1m35 1c0-1 0 0 0 0m-32 1v-1 1m221 0-4 6c-2 6-3 7-2 9l1 2v-2l3-10 3-5v-1l-1 1m-214 0s0 1 0 0m20 1v-1 1m-20 1c0 1 0 1 0 0v-1 1m-10 0v-1 1m17 2v-1 1m236-1a131 131 0 0 0-3 8h2l1-1v-1l1-1h-1v-5m9 0-2 2-1 2-2-1c0-2-1-1-1 0l-1 2-1 2h3l3-1h1l1-1a36 36 0 0 1 1-5h-1m-5 11-1 1v1l2 2v1h2v-4l1-1h-4m-11 2v3h-1c-4-1-23 2-24 4l2 4 4 11c0 2-1 1 2 5l1 2c0 1 2 2 7 3 7 2 10 2 19 1h3a72 72 0 0 1-5-5l-6-11c-2-5-2-11-1-17 0-2 0-2-1 0m4-1h-1c1 2 0 4-1 2v2l2-1 1-1 1-1-2-1m-247 0-1 1 3 2c2 1 2 0 0-2l-1-1h-1m-15 1c3 1 4 3 6 5l7 7h6l4-3 2-1v8l1 9c2 7 8 14 14 16l1 1v-2l-4-2a28 28 0 0 1-6-6l-1-1-1-2c-3-4-4-11-3-17l-1-6-2 3c-3 2-8 3-10 1l-1-1-3-3c-3-3-7-6-10-6h1m201 3v-1 1m11 10c0 1 0 1 0 0h-1 1m1 1c0 1 0 1 0 0m-124 10v1-2 1m-1 4v1a43 43 0 0 0 0-1m12-1s0 1 0 0m1 4v-1 1m-12 0s0 1 0 0m-10 5v1-1c0-1 0-1 0 0m8 0v1-1m-17 2v1-1m32 4c0 1 0 1 0 0m-33 1v-1 1m-30 4h-2c1 0 0 0 0 0l-1 1h-2c1 0 0 1 0 0l-2 2-6 3-1 1h4l1-1 6-3-4 3-2 1h5c7 0 6 0 6-1l-1-6h-1m222 0 1 1-1-1-1-1 1 1" fill="#ad5d74"/><path d="M157 64h-2l-3 1-15 4c-2 2-2 2-3 1a62 62 0 0 0-19 11l-8 6-5 6a96 96 0 0 0-26 56l-1 6v7a164 164 0 0 0 3 32l5 10 3-4-1-2a103 103 0 0 1 7-88c3-7 14-19 20-25 9-7 12-9 22-12a68 68 0 0 1 20-4l15-1h3l2 1-2-2c-4-3-10-4-15-3m-85 95v2a28 28 0 0 0 0-2m1 7v1-1m84 30v7c-3 5-11 6-14 1h-1l1 1 3 2 2 1h2c1 0 1 1-1 1h-2l1 1 8-2h-2l-1 1-2-1h1l1-1 2-1h1l1-3 1-1v-3l1-1 1 1c-1 1-1 1 0 0v-2l-1-1h-2m-71 5-2 2c-1 2-1 2 2 6v1h3l2 1h1l-1-1-1-2-4-7c0-1 0-1 0 0m55 5h2-2m0 1 2 1v-1l-3-1 1 1m4 2h1-1m200 19 1 3v3-2l2-2c0 1 0 0 0 0l-2-3h-1v1m-9 3-2 2-1 1c0 2-4 6-6 7l-1 1-1 1h1l1-1c2 0 9-7 9-8v-3m12 1v3l-2 1-1 4v3l1-1a23 23 0 0 0 2-10m-11 8-2 1-2 2-1 1-3 2c-2 0-3 1-3 2v3c-1 1-4-2-3-3v-2h-5l2 4 2 4 1 2 8-1c3-2 2-2 3-4l1-2v-2l1-1v-1l-2 1 2-3 1-2v-1m-5 8-2 2-1-1h1l2-1m1 3-4 2-1 1-3 1c-1-1-1-3 1-3h1l3-1h3M66 280v2l1-1c0-2 0-2-1-1m2 2 2 4v-2l-1-2h-1m3 3 3 3v1-1l-1-2-1-1h-1m5 1 2 4 1-1-1-2v-1h-2m4 1 1 3 1-3h-2m15 1-1 2h1l2-1h1-1l-2-1m1 3c-2 0-2 1-2 2l-1 2h2v3l1-1 2-2v-4h-2m3 5-1 1-2 2v1l1-1 2-1h1l-1-2m0 3h-1 1l-1 1-1 1v1h1l1 1 2-1v1l-1 2h1c1-1 1 0 1 1v1-1l1-1v-1l-1-2v-1l-1-2h-2m4 6-1 4 1 1v-1l4 4h1-5v8c-1 2-1 2 1 4l5 10c1 2 1 2 2 0v-2l-4-8v-2h2l1 1h2l2 1v-7l1-3v-2l-3-3-2-2-2-2h-1c-3-2-3-2-4-1m3 2v1l2 1 2 3h-3c1-1-1-4-2-4v-1h1m107 3-1 2c1 2 3 0 3-1s-1-2-2-1m-112 2v8c1 2 1 2 1 0v-7c-1-3-1-3-1-1m1 0h1v-1h-1v1m109 1-2 3v1l-1 2a70 70 0 0 1 0 2l2-2h2l2-3h-3l-1 1v-1l1-1h2v-1l-2-1m-100 2 2 2h-1v3l-2-2v-1l-1-1h1v-1h1m97 1v1-1l1-1-1 1m-77 2v6h3v-1l-1-2-1-3h-1m108 1h1c1 0 1 0 0 0h-1m-117 0-1 1 1 1 1 1 1 1v-1l1-1v-1h-1l-2-1v-1 1m16 0-2 2c-2 1-1 4 0 4h2v-1l-1-1c-1-1 0-3 1-3h2-1l-1-1m103 1 1 2c2 2 3 2 3 1l-3-3h-1m-30 0c0 3-1 5-2 4 0-1 0 0 0 0l-1 1v1l2-1 1-1 1-1v-3h-1m20 0v2l1 1 1-1v-2h-2m-91 0v1l1 1h1c2 0 3 1 3 2-1 1-4 0-4-1h-3l1 2 3 2v1h-1c0-1 0-1 0 0-1 1-2 1-4-1-1-1-2 0-2 1l-2 5c-3 2-5 0-5-5l-1-1-2-1h-2l-1-1h-1l-1 1c0 1 0 1 0 0v1l-1 1 3 1 2 2 3 1 3 2 1 1h-2v1l-1 1-1-1h-1l-7-2-1-1-2 3-4 8-1 1 2 2 3 2a79 79 0 0 1 7 4 77 77 0 0 1 22 17l3 6a28 28 0 0 1 1 6v4l-1-2-2-6v-1l1 9-2 5v-6l-1-5v3c1 8-1 12-6 16l-1 1h13v-1h-1v1-1l4-2h2l2 1 4 1 2 1h26v-2h-3l-1-3v-2l1 1s1 0 0 0l1-2h1v-1l1 1c-1-1 0-2 1-2h1c2-1 4 2 4 4l-2 1v2l-1 1h3v2h4v-1c-1-4-3-8-5-8v-1l-2-1h-2l-1-2-1-1h-2v-1l-2-1h-4l-2-1h-2l-4-1c-6-1-9-3-11-5l-1-2-4-4v-1l-2 1a38 38 0 0 1-1 1v-1c1 0 1 0 0 0v-8l1 1v2h1v-6h-2c0 1 0 1 0 0h2v-2l-2-1h-1v-2l2-1v3c1 0 2-3 1-7v-6l-1 2-1 1v2l-1-1v-1c-1-1-1-2 1-4l2-2v3l4-6v-6c0-2-1-2-2-2h-1v1l1 1v1l1 1v3h-2c-1 1-1 0-1-1v-1h-1l-1 1h-1 3l-2 2-2 1v2l-1 1v-2l-1-1v-2c1-1 0-2-2-2l-2-3-1-1v-2h1l1 1v-1l1-1 1-1v4-1l1-1v-1l-1-1-1-1c-1 0-2-2-1-3 0-1 3 0 3 2l2 2 1 1-1 2h-1v3l1 1h1c0 1 0 0 0 0h1l1-1-1-4h5l-2-1-5-3c-5-4-10-6-11-5m69 1-1 1v1-1l1-1c0-1 0-1 0 0m-3 1-1 2c-2 5-2 11 0 19l1 1v-4l-1-3 1-1v-4a23 23 0 0 0 1-4v-4h-1v-2m-85 1v1-1c1 0 1 0 0 0m117 3a159 159 0 0 0 0 2v1l1-1h2l-1-2c-2-2-2-2-2 0m-106 0-2 1h-1v1c0 5 4 6 5 1v-1c-2 0-2-2 0-2v-1h-1l-1 1m116 0v4l1-1v-2 2c1-1 2 0 2 2v2l-1 1c0 2 0 2 1 1s1-2 3-1l-2-3-4-5-1-1 1 1m-39 0-1 1v3l1-1-1 1v1l-1 3 1 8 1 1v1-2l1-1 2-1v3l2 2 1 2v1c-2 1-3-1-2-2l-1-1-2-2v2c1 1 1 1 0 0l1 2v1c-1 1-1 0-2-3l-1-1v2l2 6v2l1 1 2 6 1 1 1-1 1 1h1l2 1-1 1c1 0 1 0 0 0h-2v1l2 1 5 5c2 2 3 3 3 7v2l1 1v4l1 3v1l1 1v3l1 2 2 4v1h4l-1-3c0-2 1-2 1 0v2l1 1h3v-1l-1-3-1-3v-6h-2l-1 1 1 2v3l-1-1v-8c-1-2 0-6 1-6v-1h2c1 1-1 4-2 4v6l2-1h1v-5l1-4v-1l-1-1h-2 3v-3l1-2 1-2v-2h-1l-1-1c-1 0-1 0 0 0h1v-2c-1-2-3-4-4-3h-1l-1-1-1-1-1-1-1 1v1l2 2 2 3 1 1 1 3v1-1c1-2 3-2 3 0s-3 5-3 3c0-1 0 0 0 0-1 2-2 2-1 0v-1h-1l-2-1c0-1 0-1 0 0 0 3-2 8-3 8l-1-2 1-2-1-2c0-4-1-5-2-6-3-1-5-3-5-4 0-3 3-3 4 0l3 2 4 4c0 1 0 1 0 0v-3l-1-1-2-1v-1l-2-2h-1c-1 1-1 0-2-1h-1v-1h1l-1-1h-3l-2-1-2-1-4-3 2 1 2 1v-4l5 3h1-1l-1-2h-1l-2-2h-1l-2-1v-1l-1-2h-1l-1-2v-2h-1v-1l-2-2h-2v2h-1c0-2 1-3 3-4v-2h-1 3v-1l-1-3h-2 1c-1 2-1 2-1 0v-2h1l-1-1m-59 3v-1 1m90 0-1 2 1 3 1 2h4l-2-5-1-2h-2m-137 4-1 4v1h1v1l1-1-1-4v-1m149 1c-1 0-1 0 0 0v5l1 1v1l1 1h2v1h-1v2l1 1v2l2-1h1v-1c0-1 0-1 0 0-1 1-2 0-2-1l1-3v-1l-1-2-1-1c1 1 0 3-1 1l-1-1-1-2v-1h1v2h2l-1-2c-1-1-2-2-3-1m-98 0v1h1l-1-1m-47 3v3l-1 1 1 1h1v-5c-1-2-1-2-1 0m104-1c-1 0 0 0 0 0h1-1m-72 1c1 2-5 4-10 4-3 0-4 0-3-1 1-2 12-4 13-3m106 2h-2l-1 1v1l2 4h1v2l1 1v-10l-1 1m-123 0c3 2 2 4-2 3l-1-2 3-1m89 2h1-1m3 1 1 1-1-1m44 1v2-2c0-1 0 0 0 0m-122 1v2l-1 1h-1l-4 1h-3c-2 1-2 1-1 2l3 5 1 2-4-3-1-2-1-1-1-2c-1-2 1-3 6-5l1-1 6 1m115 2v1c1 1 2-1 1-2s-1 0-1 1m-101 0v1l-1-2 1 1m108 2v4l1-3c0-2 0-2-1-1m-108 0v9a7 7 0 0 0-1 3v-1h1l1 1c-1 1-2 2-1 3v4h1v1l1 2 1 4v1l1 1 1 1v1l1 1v1l2-2v3h2v2h1l2 1 1 1c1 0 2 0 1 1v1h-5c-2 0-4-1-5-3l-1-1 1-1h-1l-1-1h-1l-1-3v-3l-1-3-1-2v-1l-1-1-1-1v-3l-1-2v-1l1-5 1-1v-3l1-3 1-1m-6 0-1 3c-2 2-2 2 0 3l1 4-1 2v4-1l-1-1-1-2v-4l-1-1-1-4c1-2 4-3 5-3m69 1-1 1v-1h1m0 1h1v1h-1v-1m31 2 1 1-1-1c-1-1-1-1 0 0m-23 1 1 1h1l-1-1h-1m5 0 3 2h1l-1-1-3-1m24 1-1 1v1h4v2l1 2 1 1h1v-1c1 0 2-1 1-2v-1l-1-1h1v-1l-1-1h-6m-185 2v2l1-1v2l1 3v1l1-1v-2l1-2c1 0 1-1-2-2h-2m166 0-2 1h-3 2l1 1v1l2 1v-1l1-2v-1h-1m-17 2h-2 2m38 1h1-1m-37 0v1h1v1l-2-1 1-1m-137 2c-1 1 0 1 1 4l1 2h1l-1 1c-2 0-2 3-1 3h1c-1 1 0 1 1 1h1v6c-1 2 0 3 1 3v1l-1 2h1l6 1h2v-5l-1-1c1-1 0-4-1-8-1-3-5-7-10-10h-1m-6 0c1 2-2 2-3 1v-1l-1 1 1 3 2 7v2h1l1-1h-1v4l1 1h1l2-1-1-1v-1c-2-1-1-5 1-3h1-1l-1-5-1-1 1-1v-1h-2l-1 1-1 1v-2c0-1 1-2 2-1 0 0 0 1 0 0v-2h-1m182 1 2 2h1v1l2 1h1l-2-2v-1l-2-1h-2m-1 1 2 1h1l-1-1h-2m3 2 1 1v-1h-1m-122 7v-1 1m-44 0 1 5v1-3l-1-3m62 0v1-1m85 2v2l-1-2h1m-96 0v1h1l-1-1m-64 1v1h2l-1-1-1-1v1m70 2 1 2v-1l-1-1m-72 1-1 1h-1v1l2 4h1v-1h-1l1-1c-1-1 0-1 1-1v1-1h2v-1s0-1 0 0l-1-1h-1c-1 0-1 0 0 0v-1h-2m156 1v1l-1 1 2 2v5h-1v-3l1-1-3-2v-2l2-1m33 0v10-4l1-4v-2h-2 1m2 2-1 3h1l7 1c1 1 1 2-1 3s-4 1-6-1h-1l-1 1v3l-1 1 3-1c7-2 14-2 14 0l-5 5-3 4h6v-1c2-1 3-2 4-1v2h3l1-1c0-2-1-6-3-8v-1l-3-4a19 19 0 0 0-8-5h-1l-2-1-3-1v2m-101 0 2 1v1h-1c-1 1-3-1-2-2h1m-73 1v3l1 1v-2l-1-3-1-1 1 2m47 0c0-1 0 0 0 0m-62 0h1v2h1v-1l-1-1h-1m81 0 1 1v-1h-1m11 1 1 1-2-1-1-1h1l1 1m4 1h-1 1m4 0 1 3 1 2 4 3h-1c-1 0-1 0 0 0v1l1 1h-3c0-2-1-2-2-2h-1l-1-1-1 1c-1 0-2 0-1-1h1l-1-1-1-1h-2l-2-1h-1l-1-1h3v-2h1v1h1l2 1 2 1 1 1h1v-3l-1-1-2-1h2m-102 2 1-1h-2l1 1m108 0h3l1 2 1 1v2l-2-2-1-1-1-1h-1c-1 1-3 0-3-1h3m-100 0 1 1 6 2 1-1-8-2m-7 1-1 1-1 2v3l-1 3 1 4h2l3-1-3-1h-1l2-1v-3l-1-1h1l1-1v-1h-1l1-4 1 1v-1h-3m203 0-1 1-1-1c-2 0-2 0 0 0h2m-98 1-1 1s1-2 2-1h-1m-97 0v5l1 1v6h4l1-2 1-4v-3c-2-2-6-4-7-3m100 1v1-1c0-1 0-1 0 0m-92 0 1 1c1 1 1 1 0 0l-1-1m90 0-1 1 1-1m-103 1h1l-1-1v1m73 0h1c1 1 0 2-1 2h-1c0 1-1 3-2 2v-1l1-2c-2-1-1-2 2-1m10 2 4 1 5 1 7 3c2 2-7 1-17-2-4-1-4-2-4-3h5m-71 0a40 40 0 0 1-1 8h4v-5l-1-1-2-2m99 2v1h2v-1c1-1 0-2-1-2h-1v2m-111-1 1 1v-1h-1m157 1h-1v-1l1 1m-49 0c0-1 0-1 0 0m80 0h-2c-2 1-1 1-1 2l1 3v1h6l3-3 2-2h-3l-6-1m-188 2v2l1-2c-1-2-1-2-1 0m182 0-2 3c-2 1-2 1 2 1h3l-1-1-1-4-1 1m-23-1-2 1v-1h2" fill="#51cc24"/></g></svg>